<svg enable-background="new 0 0 18 18" viewBox="0 0 18 18" xmlns="http://www.w3.org/2000/svg" xmlns:xlink="http://www.w3.org/1999/xlink"><clipPath id="a"><path d="m0 0h18v18h-18z"/></clipPath><path clip-path="url(#a)" d="m15.762 9.903c-.398-.261-.618-.588-.618-.921 0-.334.22-.661.617-.921l2.024-1.321c.177-.116.257-.337.193-.539-.063-.203-.248-.341-.465-.334l-2.51.065c-.486 0-.864-.158-1.062-.446-.186-.267-.202-.639-.05-1.049l.821-2.201c.074-.196.01-.418-.157-.544-.166-.127-.396-.129-.565-.005l-1.944 1.426c-.779.571-1.623.321-1.899-.574l-.694-2.241c-.123-.398-.783-.398-.906 0l-.692 2.241c-.278.896-1.123 1.146-1.901.575l-1.944-1.427c-.169-.124-.4-.122-.566.005-.167.126-.231.348-.157.544l.821 2.201c.153.41.135.782-.049 1.049-.199.288-.575.446-1.117.446h-.004l-2.452-.065c-.215-.006-.401.132-.465.334-.063.202.017.423.194.539l2.023 1.321c.398.26.618.587.618.921 0 .333-.22.661-.618.921l-2.023 1.32c-.177.116-.257.337-.194.539.064.203.249.32.465.334l2.51-.064c.486 0 .863.157 1.063.444.184.269.202.641.049 1.051l-.821 2.2c-.074.196-.01.419.157.545.166.127.397.129.566.004l1.944-1.426c.78-.571 1.624-.319 1.901.574l.692 2.241c.062.2.245.335.453.335s.391-.135.453-.334l.693-2.241c.276-.895 1.12-1.144 1.899-.574l1.944 1.426c.086.063.2.098.289.092.262-.004.482-.208.482-.475 0-.104-.034-.201-.092-.28l-.778-2.086c-.152-.41-.136-.782.05-1.051.198-.286.576-.453 1.12-.443l2.452.063c.217-.013.401-.131.465-.334.063-.202-.017-.423-.193-.539zm-6.762 2.597c-1.93 0-3.5-1.57-3.5-3.5s1.57-3.5 3.5-3.5 3.5 1.57 3.5 3.5-1.57 3.5-3.5 3.5" fill="#c88c32"/></svg>