<svg enable-background="new 0 0 18 18" viewBox="0 0 18 18" xmlns="http://www.w3.org/2000/svg" xmlns:xlink="http://www.w3.org/1999/xlink"><clipPath id="a"><path d="m0 0h18v18h-18z"/></clipPath><path clip-path="url(#a)" d="m3 14c0 .553-.447 1-1 1s-1-.447-1-1 .447-1 1-1 1 .447 1 1" fill="#02afbe"/><path clip-path="url(#a)" d="m15 14c0 .553.447 1 1 1s1-.447 1-1-.447-1-1-1-1 .447-1 1" fill="#02afbe"/><path clip-path="url(#a)" d="m10 17c0 .553-.447 1-1 1s-1-.447-1-1 .447-1 1-1 1 .447 1 1" fill="#02afbe"/><g fill="#bebdbd"><path clip-path="url(#a)" clip-rule="evenodd" d="m14.5 3c-.213 0-.42.026-.622.062-.424-1.754-1.994-3.062-3.878-3.062-2.209 0-4 1.791-4 4 0 .276-.224.5-.5.5s-.5-.224-.5-.5c0-.622.128-1.212.337-1.762-.419-.149-.867-.238-1.337-.238-2.209 0-4 1.791-4 4s1.791 4 4 4h10.5c1.933 0 3.5-1.566 3.5-3.5s-1.567-3.5-3.5-3.5" fill-rule="evenodd"/><path clip-path="url(#a)" d="m6.5 11v4.215c-.433-.756-1.242-1.465-2.75-1.465-.138 0-.25.112-.25.25s.112.25.25.25c2.709 0 2.75 2.638 2.75 2.75v.001c0 .138.112.249.25.249.136 0 .247-.108.25-.243v-.002-.001-.002-.002-6z"/><path clip-path="url(#a)" d="m14.25 13.75c-1.508 0-2.317.709-2.75 1.465v-4.215h-.5v6c0 .138.112.25.25.25s.25-.112.25-.25c0-.112.031-2.75 2.75-2.75.138 0 .25-.112.25-.25s-.112-.25-.25-.25"/><path clip-path="url(#a)" d="m8.75 11v4c0 .138.112.25.25.25s.25-.112.25-.25v-4z"/></g></svg>