<svg enable-background="new 0 0 18 18" viewBox="0 0 18 18" xmlns="http://www.w3.org/2000/svg" xmlns:xlink="http://www.w3.org/1999/xlink"><clipPath id="a"><path d="m0 0h18v18h-18z"/></clipPath><g clip-rule="evenodd" fill="#dddcdc" fill-rule="evenodd"><path clip-path="url(#a)" d="m15 11c-.018 0-.033.005-.05.005-.242-1.696-1.687-3.005-3.45-3.005-1.933 0-3.5 1.567-3.5 3.5 0 .276-.224.5-.5.5s-.5-.224-.5-.5c0-.495.1-.962.248-1.408-.241-.056-.489-.092-.748-.092-1.933 0-3.5 1.567-3.5 3.5s1.567 3.5 3.5 3.5h8.5c1.656 0 3-1.343 3-3s-1.344-3-3-3"/><path clip-path="url(#a)" d="m7.771 9c.809-1.202 2.175-2 3.729-2 .743 0 1.449.189 2.074.52.265-.448.426-.963.426-1.52 0-1.657-1.342-3-3-3-.273 0-.533.048-.785.117-.538-1.244-1.774-2.117-3.215-2.117s-2.676.873-3.213 2.118c-.252-.07-.514-.118-.787-.118-1.658 0-3 1.342-3 3 0 1.656 1.343 3 3 3z"/></g></svg>