<svg enable-background="new 0 0 18 18" viewBox="0 0 18 18" xmlns="http://www.w3.org/2000/svg" xmlns:xlink="http://www.w3.org/1999/xlink"><clipPath id="a"><path d="m0 0h18v18h-18z"/></clipPath><path clip-path="url(#a)" clip-rule="evenodd" d="m14.5 11c-.213 0-.42.026-.622.062-.424-1.754-1.994-3.062-3.878-3.062-2.209 0-4 1.791-4 4 0 .276-.224.5-.5.5s-.5-.224-.5-.5c0-.622.128-1.212.337-1.762-.419-.149-.867-.238-1.337-.238-2.209 0-4 1.791-4 4s1.791 4 4 4h10.5c1.933 0 3.5-1.567 3.5-3.5s-1.567-3.5-3.5-3.5" fill="#dddcdc" fill-rule="evenodd"/><path clip-path="url(#a)" d="m3.879 8.382 1.939.226c.157.022.284.074.401.132.447-.518 1-.939 1.622-1.239-.063-.32-.086-.651-.037-.992.234-1.636 1.758-2.777 3.396-2.544 1.639.234 2.777 1.756 2.543 3.393-.052.36-.174.691-.337.994.476.447.868.985 1.143 1.6.156-.043.343-.051.56-.016l1.882.318c.168.015.323-.058.395-.206.07-.148.034-.327-.09-.436l-1.412-1.24c-.278-.244-.411-.52-.374-.777s.241-.485.577-.641l1.702-.795c.149-.07.234-.231.208-.394-.027-.163-.153-.289-.32-.308l-1.94-.226c-.374-.053-.647-.216-.769-.46-.114-.227-.087-.515.077-.814l.874-1.603c.079-.143.053-.321-.062-.437-.112-.115-.29-.142-.434-.065l-1.654.883c-.66.354-1.285.069-1.399-.65l-.288-1.802c-.051-.32-.558-.393-.696-.099l-.779 1.648c-.312.659-.99.759-1.527.234l-1.34-1.312c-.119-.113-.298-.137-.439-.058-.143.08-.218.243-.182.402l.391 1.784c.073.333.018.618-.153.803-.185.2-.493.28-.91.22h-.003l-1.879-.32c-.165-.028-.324.057-.395.207-.07.148-.033.327.09.436l1.412 1.24c.277.244.409.52.373.777-.036.256-.241.484-.576.64l-1.702.795c-.15.07-.235.231-.209.393.027.163.156.275.321.309" fill="#c88c32"/></svg>