<svg enable-background="new 0 0 18 18" viewBox="0 0 18 18" xmlns="http://www.w3.org/2000/svg" xmlns:xlink="http://www.w3.org/1999/xlink"><clipPath id="a"><path d="m0 0h18v18h-18z"/></clipPath><g clip-rule="evenodd" fill-rule="evenodd"><path clip-path="url(#a)" d="m14.5 4c-.213 0-.42.026-.622.062-.424-1.754-1.994-3.062-3.878-3.062-2.209 0-4 1.791-4 4 0 .276-.224.5-.5.5s-.5-.224-.5-.5c0-.622.128-1.212.337-1.762-.419-.149-.867-.238-1.337-.238-2.209 0-4 1.791-4 4s1.791 4 4 4h10.5c1.933 0 3.5-1.567 3.5-3.5s-1.567-3.5-3.5-3.5" fill="#bebdbd"/><g fill="#00697d"><path clip-path="url(#a)" d="m10 15.8c0 .664-.447 1.2-1 1.2s-1-.536-1-1.2c0-.663 1-2.8 1-2.8s1 2.137 1 2.8"/><path clip-path="url(#a)" d="m6 15.8c0 .664-.447 1.2-1 1.2s-1-.536-1-1.2c0-.663 1-2.8 1-2.8s1 2.137 1 2.8"/><path clip-path="url(#a)" d="m14 15.8c0 .664-.447 1.2-1 1.2s-1-.536-1-1.2c0-.663 1-2.8 1-2.8s1 2.137 1 2.8"/></g></g></svg>