<svg enable-background="new 0 0 18 18" viewBox="0 0 18 18" xmlns="http://www.w3.org/2000/svg" xmlns:xlink="http://www.w3.org/1999/xlink"><clipPath id="a"><path d="m0 0h18v18h-18z"/></clipPath><g clip-rule="evenodd" fill-rule="evenodd"><path clip-path="url(#a)" d="m8.5 16.799c0 .664-.447 1.2-1 1.2s-1-.536-1-1.2c0-.662 1-2.8 1-2.8s1 2.138 1 2.8" fill="#00697d"/><path clip-path="url(#a)" d="m4.5 16.799c0 .664-.447 1.2-1 1.2s-1-.536-1-1.2c0-.662 1-2.8 1-2.8s1 2.138 1 2.8" fill="#00697d"/><path clip-path="url(#a)" d="m12.5 16.799c0 .664-.447 1.2-1 1.2s-1-.536-1-1.2c0-.662 1-2.8 1-2.8s1 2.138 1 2.8" fill="#00697d"/><path clip-path="url(#a)" d="m12 7c-.018 0-.033.005-.05.005-.242-1.695-1.687-3.005-3.45-3.005-1.933 0-3.5 1.567-3.5 3.5 0 .276-.224.5-.5.5s-.5-.224-.5-.5c0-.494.1-.962.248-1.408-.241-.055-.489-.092-.748-.092-1.933 0-3.5 1.567-3.5 3.501 0 1.933 1.567 3.5 3.5 3.5h8.5c1.656 0 3-1.345 3-3 0-1.656-1.344-3.001-3-3.001" fill="#bebdbd"/></g><path clip-path="url(#a)" d="m16.512 5.379 1.338-.799c.117-.072.176-.212.141-.345-.037-.131-.152-.225-.292-.226l-1.622-.023c-.314-.013-.554-.125-.674-.316-.113-.178-.115-.418-.005-.68l.587-1.398c.054-.123.016-.27-.089-.356-.103-.085-.251-.092-.363-.016l-1.293.87c-.515.348-1.056.164-1.21-.42l-.391-1.465c-.068-.26-.493-.277-.585-.023l-.505 1.427c-.202.571-.752.71-1.242.322l-1.217-.971c-.105-.084-.256-.088-.365-.012-.111.077-.16.22-.116.348l.472 1.441c.037.113.044.215.043.314.587.084 1.137.288 1.633.582.425-.267.93-.414 1.468-.393 1.419.058 2.521 1.257 2.465 2.673-.014.339-.096.658-.228.95.402.316.747.7 1.004 1.145.132-.059.288-.095.489-.082l1.58.103c.141-.002.264-.074.31-.204.046-.128.001-.272-.111-.35l-1.271-.907c-.25-.178-.383-.394-.375-.611.01-.215.158-.419.424-.578" fill="#c88c32"/></svg>