<svg enable-background="new 0 0 18 18" viewBox="0 0 18 18" xmlns="http://www.w3.org/2000/svg" xmlns:xlink="http://www.w3.org/1999/xlink"><clipPath id="a"><path d="m0 0h18v18h-18z"/></clipPath><g fill="#02afbe"><path clip-path="url(#a)" d="m10 13c0 .553-.447 1-1 1s-1-.447-1-1 .447-1 1-1 1 .447 1 1"/><path clip-path="url(#a)" d="m6 13c0 .553-.447 1-1 1s-1-.447-1-1 .447-1 1-1 1 .447 1 1"/><path clip-path="url(#a)" d="m14 13c0 .553-.447 1-1 1s-1-.447-1-1 .447-1 1-1 1 .447 1 1"/></g><path clip-path="url(#a)" clip-rule="evenodd" d="m14.5 4c-.213 0-.42.026-.622.062-.424-1.754-1.994-3.062-3.878-3.062-2.209 0-4 1.791-4 4 0 .276-.224.5-.5.5s-.5-.224-.5-.5c0-.622.128-1.212.337-1.762-.419-.149-.867-.238-1.337-.238-2.209 0-4 1.791-4 4s1.791 4 4 4h10.5c1.933 0 3.5-1.566 3.5-3.5s-1.567-3.5-3.5-3.5" fill="#bebdbd" fill-rule="evenodd"/><path clip-path="url(#a)" d="m8 16c0 .553-.447 1-1 1s-1-.447-1-1 .447-1 1-1 1 .447 1 1" fill="#02afbe"/><path clip-path="url(#a)" d="m12 16c0 .553-.447 1-1 1s-1-.447-1-1 .447-1 1-1 1 .447 1 1" fill="#02afbe"/></svg>