<svg enable-background="new 0 0 18 18" viewBox="0 0 18 18" xmlns="http://www.w3.org/2000/svg" xmlns:xlink="http://www.w3.org/1999/xlink"><clipPath id="a"><path d="m0 0h18v18h-18z"/></clipPath><path clip-path="url(#a)" clip-rule="evenodd" d="m14.5 4c-.213 0-.42.026-.622.062-.424-1.754-1.994-3.062-3.878-3.062-2.209 0-4 1.791-4 4 0 .276-.224.5-.5.5s-.5-.225-.5-.5c0-.622.128-1.212.337-1.762-.419-.15-.867-.238-1.337-.238-2.209 0-4 1.791-4 4s1.791 4 4 4h10.5c1.933 0 3.5-1.566 3.5-3.5s-1.567-3.5-3.5-3.5" fill="#bebdbd" fill-rule="evenodd"/><g fill="#8cb4b4"><path clip-path="url(#a)" d="m5.738 14.739h-1.107l.785-.782c.049-.051.076-.116.076-.187 0-.068-.027-.136-.077-.186-.091-.089-.278-.093-.369.001l-.784.781v-1.106c0-.143-.116-.26-.261-.26s-.262.117-.262.261v1.108l-.782-.783c-.092-.092-.278-.092-.369 0-.051.05-.078.114-.078.185s.027.136.078.187l.781.782h-1.109c-.143-.001-.26.115-.26.26 0 .144.117.261.26.261h1.109l-.781.782c-.051.05-.078.115-.078.185 0 .071.028.138.078.188.09.09.278.091.369-.001l.782-.782v1.107c0 .145.116.262.261.262.144 0 .261-.117.261-.262v-1.108l.785.784c.09.09.278.089.371-.001.1-.102.1-.27-.001-.372l-.782-.781h1.104c.145-.001.262-.118.262-.262 0-.145-.117-.261-.262-.261"/><path clip-path="url(#a)" d="m10.738 14.739h-1.107l.785-.782c.049-.051.076-.116.076-.187 0-.068-.027-.136-.077-.186-.091-.089-.277-.093-.369.001l-.783.781v-1.106c0-.143-.117-.26-.262-.26s-.262.117-.262.261v1.108l-.782-.783c-.092-.092-.278-.092-.369 0-.051.05-.078.114-.078.185s.027.136.078.187l.781.782h-1.109c-.143-.001-.26.115-.26.26 0 .144.117.261.26.261h1.109l-.781.782c-.051.05-.078.115-.078.185 0 .071.028.138.078.188.09.09.278.091.369-.001l.782-.782v1.107c0 .145.116.262.261.262s.262-.117.262-.262v-1.108l.784.784c.091.09.278.089.371-.001.101-.102.101-.27-.001-.372l-.781-.781h1.104c.144-.001.261-.118.261-.262 0-.145-.117-.261-.262-.261"/><path clip-path="url(#a)" d="m15.738 14.739h-1.107l.785-.782c.049-.051.076-.116.076-.187 0-.068-.027-.136-.077-.186-.091-.089-.277-.093-.369.001l-.783.781v-1.106c0-.144-.117-.261-.262-.261s-.262.117-.262.261v1.108l-.782-.783c-.092-.092-.277-.092-.369 0-.051.05-.077.114-.077.185s.026.136.077.187l.781.782h-1.108c-.144 0-.261.116-.261.261 0 .144.117.261.261.261h1.108l-.781.782c-.051.05-.077.115-.077.185 0 .071.027.138.077.188.091.09.278.091.369-.001l.782-.782v1.107c0 .145.116.262.261.262s.262-.117.262-.262v-1.108l.784.784c.091.09.278.089.371-.001.101-.102.101-.27-.001-.372l-.781-.781h1.104c.144-.001.261-.118.261-.262 0-.145-.117-.261-.262-.261"/></g></svg>