<svg enable-background="new 0 0 18 18" viewBox="0 0 18 18" xmlns="http://www.w3.org/2000/svg" xmlns:xlink="http://www.w3.org/1999/xlink"><clipPath id="a"><path d="m0 0h18v18h-18z"/></clipPath><g clip-rule="evenodd" fill-rule="evenodd"><path clip-path="url(#a)" d="m14.5 3c-.213 0-.42.026-.623.062-.424-1.754-1.994-3.062-3.877-3.062-2.209 0-4 1.791-4 4 0 .276-.225.5-.5.5-.277 0-.5-.224-.5-.5 0-.622.127-1.212.336-1.762-.418-.149-.867-.238-1.336-.238-2.209 0-4 1.791-4 4s1.791 4 4 4h10.5c1.932 0 3.5-1.566 3.5-3.5s-1.568-3.5-3.5-3.5" fill="#bebdbd"/><path clip-path="url(#a)" d="m11.057 11h-3.914l-2.143 3h2.855l-2.855 4 8-5.143h-3.43z" fill="#dbbd45"/></g></svg>