<svg enable-background="new 0 0 512 512" viewBox="0 0 512 512" xmlns="http://www.w3.org/2000/svg"><circle cx="256.003" cy="256.004" fill="#d7f3ff" r="249.99"/><path d="m340.184 340.6h-16.836-18.339v-31.568-9.62h25.855 27.659v41.188z" fill="#ccc"/><path d="m173.316 164.098 11.424 47.526h-22.837z" fill="#ccc"/><path d="m197.68 164.098 11.424 47.526h-22.837z" fill="#ccc"/><path d="m197.68 164.098-11.413 47.526h-1.527l-11.424-47.526h.012l12.17-127.448 12.17 127.448z" fill="#ccc"/><path d="m331.766 58.898 26.757 199.326h-14.599l-12.158-47.526-12.17 47.526h-14.587z" fill="#ccc"/><path d="m257.05 251.862 21.647 35.524h-43.293z" fill="#ccc"/><path d="m305.009 299.412v9.62h-95.905v-21.646h26.3 43.293 26.312z" fill="#ccc"/><path d="m209.104 340.6v38.109h-59.034l5.82-38.109h18.183 16.836z" fill="#ccc"/><circle cx="257.049" cy="351.728" fill="#ccc" r="26.457"/><path d="m330.864 299.412h-25.855v-12.026-29.162h14.587l12.17-47.526 12.158 47.526h14.599v41.188z" fill="#e6e6e6"/><path d="m362.131 378.709v92.069h-57.122v-130.178h18.339 16.836 18.339 3.608z" fill="#e6e6e6"/><path d="m282.906 470.778h-25.856-25.855-22.091v-90.794-1.275-38.109-31.567h95.905v31.567 130.178zm.601-119.055c0-14.611-11.845-26.457-26.457-26.457-14.611 0-26.457 11.845-26.457 26.457s11.845 26.457 26.457 26.457 26.457-11.845 26.457-26.457z" fill="#e6e6e6"/><path d="m209.104 379.984v90.794h-59.227v-90.794l.193-1.275h59.034z" fill="#e6e6e6"/><path d="m190.909 340.6h-16.836-18.183v-53.214h6.013 47.201v21.646 31.568z" fill="#e6e6e6"/><path d="m209.104 211.624v75.762h-47.201v-75.762h22.837 1.527z" fill="#e6e6e6"/><path d="m438.23 374.199c12.892 0 23.438 9.957 24.34 22.608-20.468 30.004-47.321 55.306-78.588 73.97h-21.851v-92.069c3.451-5.147 9.32-8.538 15.994-8.538 6.999 0 13.108 3.752 16.475 9.332 2.61-1.744 5.736-2.754 9.115-2.754 6.097 0 11.4 3.331 14.238 8.262 4.391-6.518 11.835-10.811 20.277-10.811z" fill="#90bc42"/><path d="m362.131 470.778h21.851c-37.436 22.368-81.21 35.211-127.977 35.211s-90.541-12.843-127.977-35.211h21.851 59.227 22.091 25.855 25.855 22.103z" fill="#9ad14b"/><path d="m150.07 378.709-.192 1.275v90.794h-21.851c-31.183-18.604-57.964-43.822-78.42-73.706.782-12.771 11.388-22.873 24.364-22.873 8.442 0 15.886 4.293 20.275 10.811 2.838-4.931 8.141-8.262 14.238-8.262 3.379 0 6.506 1.01 9.115 2.754 3.367-5.58 9.476-9.332 16.475-9.332 6.676.001 12.544 3.392 15.996 8.539z" fill="#90bc42"/><g fill="#333"><path d="m256.001.001c-141.159 0-256.001 114.841-256.001 255.999s114.842 255.999 256.001 255.999 255.999-114.841 255.999-255.999-114.841-255.999-255.999-255.999zm0 12.025c134.528 0 243.974 109.446 243.974 243.974 0 46.455-13.056 89.916-35.684 126.916-5.348-8.846-15.069-14.729-26.066-14.729-7.555 0-14.723 2.794-20.236 7.705-3.967-3.276-9.004-5.155-14.277-5.155-2.525 0-4.999.417-7.341 1.227-4.707-4.959-11.22-7.805-18.25-7.805-3.49 0-6.874.726-9.981 2.062v-25.616c0-2.464-1.486-4.577-3.608-5.505v-35.683-41.188c0-.273-.044-.533-.081-.796l.028-.004-26.757-199.326c-.402-2.985-2.949-5.213-5.96-5.213s-5.558 2.228-5.96 5.213l-26.757 199.326.028.004c-.035.263-.081.523-.081.796v23.149h-16.917l-19.889-32.644c-1.091-1.792-3.036-2.884-5.135-2.884s-4.043 1.093-5.135 2.884l-19.889 32.644h-16.917v-69.749c0-.006-.001-.012-.001-.018-.001-.357-.042-.716-.108-1.073-.012-.066-.022-.131-.036-.196-.008-.038-.012-.078-.022-.118l-11.343-47.219-12.115-126.921c-.295-3.086-2.886-5.442-5.986-5.442s-5.691 2.356-5.986 5.442l-12.115 126.922-11.344 47.219c-.01.038-.012.078-.022.118-.014.065-.023.131-.036.196-.066.356-.107.714-.108 1.073 0 .006-.001.012-.001.018v69.749c-3.322 0-6.013 2.693-6.013 6.013v52.76l-4.103 26.875c-3.555-1.857-7.553-2.868-11.695-2.868-7.03 0-13.543 2.845-18.25 7.805-2.341-.809-4.816-1.227-7.34-1.227-5.273 0-10.311 1.88-14.278 5.155-5.513-4.91-12.681-7.705-20.236-7.705-11.062 0-20.835 5.953-26.162 14.888-22.688-37.035-35.784-80.552-35.784-127.075 0-134.528 109.447-243.974 243.975-243.974zm-20.594 281.378h43.293 20.293v6.013 3.608h-83.879v-9.621zm10.704-12.026 10.942-17.958 10.942 17.958zm94.069 28.862c-3.322 0-6.013 2.693-6.013 6.013v18.339h-4.81v-18.339c0-3.32-2.691-6.013-6.013-6.013-3.321 0-6.013 2.693-6.013 6.013v18.339h-6.314v-25.555-3.608h41.489v29.162h-6.313v-18.339c0-3.32-2.691-6.012-6.013-6.012zm-179.128 36.377h42.036v26.08h-46.018zm127.869 118.149v-18.035c0-3.32-2.691-6.013-6.013-6.013-3.321 0-6.013 2.693-6.013 6.013v18.035h-13.83v-18.035c0-3.32-2.691-6.013-6.013-6.013s-6.013 2.693-6.013 6.013v18.035h-13.83v-18.035c0-3.32-2.691-6.013-6.013-6.013s-6.013 2.693-6.013 6.013v18.035h-10.072v-124.162-25.554h83.879v25.555 124.162zm22.097-177.375v-23.149h8.578c2.747 0 5.143-1.86 5.825-4.522l6.341-24.774 6.341 24.774c.681 2.661 3.079 4.522 5.825 4.522h8.578v29.162h-15.633v-14.581c0-3.32-2.691-6.013-6.013-6.013s-6.013 2.693-6.013 6.013v14.581h-13.83v-6.013zm37.578-35.176-11.008-43.007c-.681-2.661-3.079-4.522-5.825-4.522-2.747 0-5.143 1.86-5.825 4.522l-11.008 43.007h-3.048l19.882-148.118 19.882 148.118zm-147.125-46.599h-7.58l3.789-15.777zm-15.971-16.549-6.09-25.349 6.09-63.793 6.09 63.793zm-12.182.772 3.789 15.777h-7.58zm-5.406 27.803h16.824 1.527 16.824v63.736h-35.175zm-6.012 75.762h41.188v15.633 25.555h-6.163v-18.339c0-3.32-2.691-6.013-6.013-6.013-3.321 0-6.013 2.693-6.013 6.013v18.339h-4.81v-18.339c0-3.32-2.691-6.013-6.013-6.013s-6.013 2.693-6.013 6.013v18.339h-6.163zm-6.013 91.319h47.201v80.043h-47.201zm155.131 80.043v-118.149h45.096v118.149zm-255.151-69.401c1.53-8.645 9.107-15.152 18.105-15.152 6.133 0 11.849 3.05 15.288 8.157 1.159 1.722 3.151 2.731 5.199 2.65 2.076-.073 3.965-1.211 5-3.01 1.863-3.237 5.321-5.248 9.026-5.248 2.074 0 4.071.601 5.775 1.74 1.367.914 3.046 1.225 4.649.869 1.604-.357 2.991-1.355 3.84-2.762 2.428-4.024 6.662-6.425 11.327-6.425 3.764 0 7.294 1.603 9.785 4.346v84.235h-14.002c-29.236-17.732-54.462-41.437-73.992-69.4zm96.413 81.43h207.441c-31.495 14.855-66.651 23.18-103.72 23.18s-72.226-8.324-103.721-23.18zm229.861-12.029h-14v-84.036c2.5-2.872 6.122-4.546 9.981-4.546 4.665 0 8.899 2.403 11.327 6.425.849 1.407 2.236 2.405 3.84 2.762 1.604.356 3.283.043 4.649-.869 1.704-1.139 3.7-1.74 5.775-1.74 3.704 0 7.164 2.011 9.028 5.248 1.035 1.799 2.926 2.937 4.999 3.009 2.074.07 4.039-.928 5.199-2.652 3.438-5.107 9.153-8.156 15.287-8.156 8.921 0 16.44 6.399 18.06 14.935-19.554 28.059-44.832 51.841-74.145 69.62z"/><path d="m170.318 391.413c-3.321 0-6.013 2.693-6.013 6.013v14.731c0 3.32 2.691 6.013 6.013 6.013s6.013-2.693 6.013-6.013v-14.731c-.001-3.321-2.692-6.013-6.013-6.013z"/><path d="m190.912 391.413c-3.321 0-6.013 2.693-6.013 6.013v14.731c0 3.32 2.691 6.013 6.013 6.013s6.013-2.693 6.013-6.013v-14.731c-.001-3.321-2.692-6.013-6.013-6.013z"/><path d="m323.269 391.413c-3.321 0-6.013 2.693-6.013 6.013v14.731c0 3.32 2.691 6.013 6.013 6.013s6.013-2.693 6.013-6.013v-14.731c0-3.321-2.692-6.013-6.013-6.013z"/><path d="m343.863 391.413c-3.322 0-6.013 2.693-6.013 6.013v14.731c0 3.32 2.691 6.013 6.013 6.013 3.321 0 6.013-2.693 6.013-6.013v-14.731c0-3.321-2.692-6.013-6.013-6.013z"/><path d="m170.318 435.307c-3.321 0-6.013 2.693-6.013 6.013v7.516c0 3.32 2.691 6.013 6.013 6.013s6.013-2.693 6.013-6.013v-7.516c-.001-3.321-2.692-6.013-6.013-6.013z"/><path d="m190.912 435.307c-3.321 0-6.013 2.693-6.013 6.013v7.516c0 3.32 2.691 6.013 6.013 6.013s6.013-2.693 6.013-6.013v-7.516c-.001-3.321-2.692-6.013-6.013-6.013z"/><path d="m323.269 435.307c-3.321 0-6.013 2.693-6.013 6.013v7.516c0 3.32 2.691 6.013 6.013 6.013s6.013-2.693 6.013-6.013v-7.516c0-3.321-2.692-6.013-6.013-6.013z"/><path d="m343.863 435.307c-3.322 0-6.013 2.693-6.013 6.013v7.516c0 3.32 2.691 6.013 6.013 6.013 3.321 0 6.013-2.693 6.013-6.013v-7.516c0-3.321-2.692-6.013-6.013-6.013z"/><path d="m257.053 319.259c-17.904 0-32.469 14.566-32.469 32.469 0 17.904 14.566 32.469 32.469 32.469 17.904 0 32.469-14.566 32.469-32.469 0-17.904-14.565-32.469-32.469-32.469zm0 52.913c-11.273 0-20.444-9.171-20.444-20.444s9.171-20.444 20.444-20.444 20.444 9.171 20.444 20.444-9.171 20.444-20.444 20.444z"/><path d="m231.198 395.622c-3.321 0-6.013 2.693-6.013 6.013v22.248c0 3.32 2.691 6.013 6.013 6.013s6.013-2.693 6.013-6.013v-22.248c-.001-3.321-2.692-6.013-6.013-6.013z"/><path d="m257.053 390.21c-3.322 0-6.013 2.693-6.013 6.013v27.659c0 3.32 2.691 6.013 6.013 6.013 3.321 0 6.013-2.693 6.013-6.013v-27.659c0-3.32-2.692-6.013-6.013-6.013z"/><path d="m282.908 395.622c-3.321 0-6.013 2.693-6.013 6.013v22.248c0 3.32 2.691 6.013 6.013 6.013s6.013-2.693 6.013-6.013v-22.248c0-3.321-2.691-6.013-6.013-6.013z"/><path d="m185.5 225.458c-3.321 0-6.013 2.693-6.013 6.013v36.678c0 3.32 2.691 6.013 6.013 6.013s6.013-2.693 6.013-6.013v-36.678c0-3.32-2.692-6.013-6.013-6.013z"/><circle cx="257.049" cy="351.728" r="6.013"/></g></svg>