<svg enable-background="new 0 0 512 512" viewBox="0 0 512 512" xmlns="http://www.w3.org/2000/svg"><path d="m505.73 267.147c.168-3.692.253-7.408.253-11.148 0-138.067-111.923-249.99-249.978-249.99-138.067 0-249.99 111.923-249.99 249.99 0 3.74.084 7.456.253 11.148.337 7.913 1.058 15.742 2.129 23.45 3.872 27.996 12.374 54.488 24.713 78.72 41.32 81.113 125.62 136.672 222.896 136.672 97.492 0 181.949-55.811 223.149-137.225 12.206-24.075 20.612-50.388 24.448-78.167 1.069-7.709 1.79-15.537 2.127-23.45z" fill="#d7f3ff"/><path d="m464.037 290.597h39.565c-3.836 27.779-12.242 54.092-24.448 78.167h-15.116v-78.167z" fill="#f7b239"/><path d="m50.365 290.597v78.167h-16.151l-1.106.553c-12.338-24.232-20.841-50.724-24.713-78.72z" fill="#f7b239"/><path d="m435.186 290.602h28.85v78.167h-28.85z" fill="#e09b2d"/><path d="m305.31 148.694v27.057h-12.856-36.45-36.462-12.843v-27.057-8.418h18.94 20.24 20.239 20.251 18.941z" fill="#f7b239"/><path d="m411.136 148.694v27.057h-9.32-36.462-36.45-23.594v-27.057z" fill="#e09b2d"/><path d="m206.699 148.694v27.057h-23.607-36.449-36.45-9.32v-27.057z" fill="#e09b2d"/><path d="m105.082 230.468v138.296h-25.856v-78.167-23.45-36.679z" fill="#f7b239"/><path d="m145.246 230.473h25.855v138.295h-25.855z" fill="#f7b239"/><path d="m211.267 230.473h25.855v138.295h-25.855z" fill="#f7b239"/><path d="m277.288 230.473h25.855v138.295h-25.855z" fill="#f7b239"/><path d="m343.31 230.473h25.855v138.295h-25.855z" fill="#f7b239"/><path d="m435.187 290.597v78.167h-25.855v-138.296h25.855v36.679z" fill="#f7b239"/><g fill="#e09b2d"><path d="m409.331 212.434h25.855v18.039h-25.855z"/><path d="m343.31 212.434h25.855v18.039h-25.855z"/><path d="m277.288 212.434h25.855v18.039h-25.855z"/><path d="m211.267 212.434h25.855v18.039h-25.855z"/><path d="m145.246 212.434h25.855v18.039h-25.855z"/><path d="m79.226 212.434h25.855v18.039h-25.855z"/><path d="m50.365 290.602h28.862v78.167h-28.862z"/></g><path d="m435.187 267.147h70.543c-.337 7.913-1.058 15.742-2.129 23.45h-39.565-28.85z" fill="#f7b239"/><path d="m79.226 267.147v23.45h-28.861-41.97c-1.07-7.708-1.792-15.537-2.129-23.45z" fill="#f7b239"/><path d="m401.816 175.751h9.32 24.051v36.679h-25.855-40.166-25.855-40.166-25.855-40.166-25.855-40.166-25.855-40.166-25.856-2.405v-36.679h24.052 9.32 36.45 36.449 23.607 12.843 36.462 36.45 12.856 23.594 36.45z" fill="#f7b239"/><path d="m464.037 368.764h15.116c-41.2 81.414-125.656 137.225-223.149 137.225-97.276 0-181.564-55.559-222.884-136.66l1.094-.565h16.151 28.862 25.855 40.166 25.855 40.166 25.855 40.166 25.855 40.166 25.855 40.166 25.855z" fill="#f4d39d"/><path d="m256.001.001c-141.159 0-256.001 114.841-256.001 255.999s114.842 255.999 256.001 255.999 255.999-114.841 255.999-255.999-114.841-255.999-255.999-255.999zm0 12.025c134.528 0 243.974 109.446 243.974 243.974 0 1.716-.03 3.426-.065 5.134h-58.713v-24.744c2.89-.438 5.111-2.91 5.111-5.921s-2.221-5.484-5.111-5.921v-42.783h7.817c3.322 0 6.013-2.693 6.013-6.013s-2.691-6.013-6.013-6.013h-31.868v-15.032h6.013c3.321 0 6.013-2.693 6.013-6.013s-2.691-6.013-6.013-6.013h-111.84v-2.405c0-3.32-2.691-6.013-6.013-6.013h-12.928v-13.228c0-3.32-2.691-6.013-6.013-6.013-3.321 0-6.013 2.693-6.013 6.013v13.228h-8.217v-13.228c0-3.32-2.691-6.013-6.013-6.013-3.321 0-6.013 2.693-6.013 6.013v13.228h-8.218v-13.228c0-3.32-2.691-6.013-6.013-6.013s-6.013 2.693-6.013 6.013v13.228h-8.217v-13.228c0-3.32-2.691-6.013-6.013-6.013s-6.013 2.693-6.013 6.013v13.228h-12.928c-3.321 0-6.013 2.693-6.013 6.013v2.405h-111.838c-3.321 0-6.013 2.693-6.013 6.013s2.691 6.013 6.013 6.013h6.013v15.032h-31.868c-3.321 0-6.013 2.693-6.013 6.013s2.691 6.013 6.013 6.013h10.222v42.783c-2.89.438-5.111 2.91-5.111 5.921s2.221 5.484 5.111 5.921v24.744h-61.119c-.036-1.708-.065-3.418-.065-5.134 0-134.528 109.447-243.974 243.975-243.974zm119.174 350.725v-126.36c2.89-.438 5.111-2.91 5.111-5.921s-2.221-5.484-5.111-5.921v-6.104h28.14v6.104c-2.89.438-5.111 2.91-5.111 5.921s2.221 5.484 5.111 5.921v126.361h-28.14zm-66.021 0v-126.36c2.89-.438 5.111-2.91 5.111-5.921s-2.221-5.484-5.111-5.921v-6.104h28.139v6.104c-2.89.438-5.111 2.91-5.111 5.921s2.221 5.484 5.111 5.921v126.361h-28.139zm-66.021 0v-126.36c2.89-.438 5.111-2.91 5.111-5.921s-2.221-5.484-5.111-5.921v-6.104h28.14v6.104c-2.89.438-5.111 2.91-5.111 5.921s2.221 5.484 5.111 5.921v126.361h-28.14zm-66.022 0v-126.36c2.89-.438 5.111-2.91 5.111-5.921s-2.221-5.484-5.111-5.921v-6.104h28.14v6.104c-2.89.438-5.111 2.91-5.111 5.921s2.221 5.484 5.111 5.921v126.361h-28.14zm-66.02 0v-126.36c2.89-.438 5.111-2.91 5.111-5.921s-2.221-5.484-5.111-5.921v-6.104h28.139v6.104c-2.89.438-5.111 2.91-5.111 5.921s2.221 5.484 5.111 5.921v126.361h-28.139zm-54.713 0v-66.141h16.832v66.141zm-40.954-66.141h28.928v66.141h-7.698c-10.065-20.597-17.305-42.813-21.23-66.141zm185.258-141.904v15.032h-93.8v-15.032zm98.611-8.418v23.45h-86.585v-23.45zm12.026 23.45v-15.032h93.8v15.032zm-207.143 12.026v7.215c0 3.32 2.691 6.013 6.013 6.013s6.013-2.693 6.013-6.013v-7.215h24.428v7.215c0 3.32 2.691 6.013 6.013 6.013s6.013-2.693 6.013-6.013v-7.215h24.428v7.215c0 3.32 2.691 6.013 6.013 6.013s6.013-2.693 6.013-6.013v-7.215h24.428v7.215c0 3.32 2.691 6.013 6.013 6.013s6.013-2.693 6.013-6.013v-7.215h24.428v7.215c0 3.32 2.691 6.013 6.013 6.013s6.013-2.693 6.013-6.013v-7.215h24.428v7.215c0 3.32 2.691 6.013 6.013 6.013s6.013-2.693 6.013-6.013v-7.215h24.428v7.215c0 3.32 2.691 6.013 6.013 6.013s6.013-2.693 6.013-6.013v-7.215h24.428v7.215c0 3.32 2.691 6.013 6.013 6.013 3.321 0 6.013-2.693 6.013-6.013v-7.215h24.428v7.215c0 3.32 2.691 6.013 6.013 6.013s6.013-2.693 6.013-6.013v-7.215h21.346v24.653h-343.939v-24.653zm311.165 36.679h13.83v6.013h-13.83zm-52.191 6.012h-13.83v-6.013h13.83zm-66.022 0h-13.83v-6.013h13.83zm-66.021 0h-13.83v-6.013h13.83zm-66.022 0h-13.83v-6.013h13.83zm-66.02 0h-13.83v-6.013h13.83zm-25.855 60.129h-59.501c-.444-3.783-.803-7.591-1.071-11.424h60.572zm12.026 6.049c0-.012.004-.023.004-.035v-23.45c0-.012-.004-.023-.004-.035v-30.631h13.83v126.27h-13.83zm66.02-54.152h13.83v126.27h-13.83zm66.022 0h13.83v126.27h-13.83zm66.021 0h13.83v126.27h-13.83zm66.021 0h13.83v126.27h-13.83zm66.021 0h13.83v126.27h-13.83zm25.855 60.129h16.832v66.141h-16.832zm28.858 66.141v-66.141h26.521c-3.925 23.329-11.165 45.544-21.23 66.141zm-28.854-78.167v-11.424h58.162c-.268 3.834-.628 7.641-1.072 11.424zm-185.199 215.391c-91.435 0-171.268-50.568-213.041-125.197h426.081c-41.773 74.629-121.605 125.197-213.04 125.197z" fill="#333"/></svg>