<svg enable-background="new 0 0 512 512" viewBox="0 0 512 512" xmlns="http://www.w3.org/2000/svg"><circle cx="256.003" cy="256.004" fill="#d7f3ff" r="249.99"/><path d="m425.17 326.878c10.402 0 18.832 8.43 18.832 18.832 0 10.414-8.43 18.844-18.832 18.844-5.616 0-10.655-2.477-14.106-6.374-3.451 3.896-8.478 6.374-14.094 6.374s-10.643-2.477-14.094-6.374c-3.451 3.896-8.478 6.374-14.094 6.374s-10.643-2.477-14.094-6.374c-3.451 3.896-8.49 6.374-14.106 6.374-10.402 0-18.832-8.43-18.832-18.844 0-10.402 8.43-18.832 18.832-18.832 5.616 0 10.655 2.465 14.106 6.362 3.451-3.896 8.478-6.362 14.094-6.362s10.643 2.465 14.094 6.362c3.451-3.896 8.478-6.362 14.094-6.362s10.643 2.465 14.094 6.362c3.451-3.896 8.49-6.362 14.106-6.362z" fill="#90bc42"/><path d="m89.376 326.878c10.414 0 18.844 8.43 18.844 18.832 0 10.414-8.43 18.844-18.844 18.844-5.616 0-10.643-2.477-14.094-6.374-3.451 3.896-8.478 6.374-14.094 6.374s-10.643-2.477-14.094-6.374c-3.451 3.896-8.478 6.374-14.094 6.374-.782 0-1.563-.048-2.321-.156-5.003-10.378-9.308-21.153-12.855-32.265.373.349.734.722 1.07 1.106 3.451-3.896 8.478-6.362 14.106-6.362 5.616 0 10.643 2.465 14.094 6.362 3.451-3.896 8.478-6.362 14.094-6.362s10.643 2.465 14.094 6.362c3.451-3.895 8.478-6.361 14.094-6.361z" fill="#90bc42"/><path d="m470.314 384.71.012.012c-43.725 72.659-123.348 121.267-214.322 121.267-90.986 0-170.621-48.608-214.346-121.279h19.53 28.188 80.632 16.102 21.718 22.464 21.694 22.464 66.129 28.2 28.188 28.2z" fill="#9ad14b"/><path d="m268.367 349.775c6.073.902 10.27 6.542 9.368 12.615l-3.283 22.32h-22.464l3.776-25.567c.89-6.061 6.542-10.258 12.603-9.368z" fill="#ccc"/><path d="m225.146 343.402c6.073.902 10.258 6.542 9.368 12.615l-4.221 28.693h-22.464l4.714-31.94c.89-6.061 6.542-10.258 12.603-9.368z" fill="#ccc"/><path d="m181.926 337.04c6.073.89 10.258 6.53 9.368 12.603l-5.183 35.067h-16.102l-6.205-.914 5.52-37.4c.889-6.061 6.541-10.258 12.602-9.356z" fill="#ccc"/><g fill="#f2f2f2"><path d="m250.015 95.047-21.261-3.139 6.313-42.823 65.54 9.656-6.325 42.836-21.261-3.139z"/><path d="m266.659 141.586-23.005-3.391-22.993-3.391-19.71-2.898v-.012l6.361-43.137 21.442 3.151 21.261 3.139 23.006 3.391 21.261 3.139 21.442 3.163-6.362 43.136-19.698-2.898z"/><path d="m260.297 184.735-23.005-3.392-22.993-3.391-19.71-2.898 6.362-43.148 19.71 2.898 22.993 3.391 23.005 3.391 23.005 3.392 19.698 2.898-6.361 43.148-19.698-2.898z"/><path d="m253.936 227.883-23.005-3.404-22.994-3.391-19.71-2.898 6.362-43.136 19.71 2.898 22.993 3.391 23.005 3.392 23.006 3.391 19.698 2.898-6.362 43.148-19.71-2.898z"/><path d="m290.277 277.32-65.708-9.692-23.005-3.392-19.698-2.898 6.361-43.148 19.71 2.898 22.994 3.391 23.005 3.404 22.993 3.391 19.71 2.898z"/><path d="m264.206 317.558-22.993-3.391-23.006-3.391-23.005-3.391-19.698-2.899v-.012l6.362-43.136 19.698 2.898 23.005 3.392 65.708 9.692-6.361 43.137z"/><path d="m283.916 320.457v.012l-6.181 41.922c.902-6.073-3.295-11.713-9.368-12.615-6.061-.89-11.713 3.307-12.603 9.368l-3.776 25.567h-21.694l4.221-28.693c.89-6.073-3.295-11.713-9.368-12.615-6.061-.89-11.713 3.307-12.603 9.368l-4.714 31.94h-21.718l5.183-35.067c.89-6.073-3.295-11.713-9.368-12.603-6.061-.902-11.713 3.295-12.603 9.356l6.181-41.91 19.698 2.898 23.005 3.391 23.005 3.391 22.993 3.391z"/></g><path d="m256.001.001c-141.159 0-256.001 114.84-256.001 255.999s114.842 255.999 256.001 255.999 255.999-114.841 255.999-255.999c0-141.159-114.841-255.999-255.999-255.999zm0 12.025c134.528 0 243.974 109.446 243.974 243.974 0 44.703-12.097 86.628-33.17 122.697h-35.625v-8.895c10.803-2.7 18.839-12.46 18.839-24.087 0-13.704-11.149-24.853-24.852-24.853-5.072 0-9.984 1.565-14.098 4.406-4.114-2.842-9.024-4.406-14.097-4.406-5.072 0-9.984 1.565-14.098 4.406-4.114-2.842-9.025-4.406-14.098-4.406s-9.983 1.565-14.096 4.406c-4.114-2.842-9.025-4.406-14.098-4.406-13.704 0-24.852 11.149-24.852 24.853 0 11.628 8.037 21.388 18.839 24.087v8.895h-53.157l7.593-51.541c2.798-.15 5.201-2.23 5.626-5.107.426-2.881-1.271-5.586-3.911-6.534l4.646-31.505c2.8-.149 5.202-2.228 5.627-5.107.426-2.881-1.271-5.585-3.911-6.534l4.646-31.506c2.798-.149 5.202-2.228 5.627-5.107.426-2.881-1.271-5.585-3.91-6.532l4.646-31.506c2.8-.149 5.204-2.228 5.627-5.107.426-2.881-1.271-5.586-3.911-6.534l4.646-31.505c2.798-.149 5.202-2.228 5.627-5.107.426-2.881-1.271-5.585-3.911-6.534l4.646-31.506c2.798-.149 5.202-2.23 5.627-5.109.485-3.285-1.786-6.341-5.071-6.826l-20.26-2.987 4.56-30.932 3.604.532c.297.043.593.065.884.065 2.933 0 5.501-2.149 5.941-5.136.485-3.285-1.786-6.341-5.071-6.826l-84.64-12.48c-3.288-.483-6.341 1.787-6.826 5.071-.485 3.285 1.786 6.341 5.071 6.826l3.604.532-4.56 30.93-15.487-2.286c-.022-.004-.043-.004-.065-.006l-4.704-.694c-3.288-.485-6.341 1.787-6.826 5.071-.426 2.881 1.271 5.585 3.911 6.534l-4.643 31.487c-2.804.144-5.205 2.245-5.629 5.127-.426 2.881 1.271 5.585 3.91 6.532l-4.643 31.487c-2.803.144-5.205 2.246-5.629 5.127-.426 2.881 1.27 5.585 3.91 6.532l-4.643 31.486c-2.806.143-5.205 2.246-5.629 5.127-.426 2.881 1.27 5.585 3.91 6.532l-4.643 31.487c-2.803.144-5.204 2.246-5.628 5.127-.426 2.881 1.27 5.584 3.908 6.532l-4.643 31.488c-2.806.144-5.205 2.245-5.629 5.127-.426 2.881 1.271 5.586 3.911 6.534l-10.218 69.262h-63.09v-8.895c10.805-2.7 18.844-12.461 18.844-24.091 0-13.7-11.15-24.845-24.857-24.845-5.072 0-9.983 1.562-14.095 4.4-4.113-2.838-9.022-4.4-14.094-4.4s-9.981 1.562-14.094 4.4c-4.113-2.838-9.023-4.4-14.095-4.4-4.015 0-7.926.978-11.422 2.79-6.21-21.489-9.55-44.187-9.55-67.653 0-134.532 109.447-243.978 243.975-243.978zm169.165 346.516c-3.655 0-7.152-1.583-9.595-4.342-1.141-1.289-2.782-2.028-4.502-2.028s-3.361.738-4.502 2.028c-2.442 2.76-5.939 4.342-9.594 4.342s-7.152-1.583-9.595-4.342c-1.141-1.289-2.782-2.028-4.502-2.028s-3.361.738-4.502 2.028c-2.442 2.76-5.939 4.342-9.595 4.342-3.653 0-7.15-1.583-9.594-4.342-1.141-1.289-2.782-2.028-4.502-2.028s-3.361.738-4.502 2.028c-2.442 2.76-5.939 4.342-9.595 4.342-7.072 0-12.827-5.754-12.827-12.828 0-7.072 5.754-12.828 12.827-12.828 3.655 0 7.152 1.583 9.595 4.342 1.141 1.289 2.782 2.028 4.502 2.028 1.721 0 3.361-.738 4.502-2.028 2.442-2.76 5.939-4.342 9.594-4.342s7.152 1.583 9.595 4.342c1.141 1.289 2.782 2.028 4.502 2.028 1.721 0 3.361-.738 4.502-2.028 2.442-2.76 5.939-4.342 9.595-4.342 3.653 0 7.15 1.583 9.594 4.342 1.141 1.289 2.782 2.028 4.502 2.028 1.721 0 3.361-.738 4.502-2.028 2.442-2.76 5.939-4.342 9.595-4.342 7.072 0 12.827 5.754 12.827 12.828s-5.755 12.828-12.827 12.828zm-78.569 11.27c2.887-.725 5.629-1.954 8.085-3.65 2.454 1.696 5.196 2.925 8.084 3.65v8.886h-16.167v-8.886zm28.193 0c2.887-.725 5.629-1.954 8.085-3.65 2.454 1.696 5.198 2.925 8.085 3.65v8.886h-16.169v-8.886zm28.196 0c2.887-.725 5.628-1.954 8.084-3.65 2.454 1.696 5.198 2.925 8.085 3.65v8.886h-16.167v-8.886zm-174.421-14.67-3.465 23.555h-10.306l3.698-25.054c.196-1.34.907-2.525 1.999-3.337 1.094-.813 2.435-1.152 3.771-.956 2.781.413 4.71 3.012 4.303 5.792zm-2.546-17.688c-4.514-.665-9.03.471-12.702 3.2-3.674 2.73-6.061 6.722-6.724 11.239l-3.956 26.805h-9.562l4.166-28.183c1.369-9.343-5.113-18.055-14.432-19.42-1.738-.26-3.472-.246-5.158.014l2.921-19.8 96.516 14.231-2.917 19.803c-1.52-.734-3.176-1.254-4.933-1.515-9.34-1.375-18.055 5.107-19.425 14.438l-3.017 20.432h-9.542l3.208-21.809c1.37-9.331-5.106-18.049-14.443-19.435zm-55.385 41.243 4.638-31.427c.196-1.34.906-2.524 1.997-3.335 1.092-.811 2.438-1.146 3.784-.945 2.773.406 4.697 3 4.291 5.775l-4.424 29.933h-10.287v-.001zm41.751-283.122 96.513 14.236-4.607 31.245-7.807-1.151 2.707-18.362c.485-3.285-1.786-6.341-5.071-6.826-3.289-.486-6.341 1.787-6.826 5.071l-2.707 18.362-11.105-1.638 2.708-18.361c.485-3.285-1.785-6.341-5.071-6.826-3.287-.483-6.341 1.787-6.826 5.071l-2.708 18.362-11.105-1.638 2.707-18.362c.485-3.285-1.786-6.341-5.071-6.826-3.287-.483-6.341 1.787-6.826 5.071l-2.707 18.361-11.105-1.638 2.707-18.361c.485-3.285-1.786-6.341-5.071-6.826-3.288-.483-6.341 1.787-6.826 5.071l-2.707 18.361-7.808-1.151zm81.391-31.759-4.56 30.932-7.351-1.084-2.019-.298 2.707-18.362c.485-3.285-1.786-6.341-5.071-6.826-3.288-.483-6.341 1.787-6.826 5.071l-2.707 18.361-11.105-1.638 2.707-18.361c.485-3.285-1.786-6.341-5.071-6.826-3.29-.483-6.341 1.787-6.826 5.071l-2.707 18.361-9.37-1.383 4.56-30.931zm-87.753 74.906 96.515 14.231-4.608 31.25-7.807-1.151 2.707-18.361c.485-3.285-1.786-6.341-5.071-6.826-3.293-.487-6.341 1.787-6.826 5.071l-2.707 18.361-11.105-1.638 2.707-18.361c.485-3.285-1.786-6.341-5.071-6.826-3.288-.486-6.341 1.787-6.826 5.071l-2.707 18.362-11.103-1.637 2.707-18.362c.485-3.285-1.786-6.341-5.071-6.826-3.29-.488-6.341 1.787-6.826 5.071l-2.707 18.362-11.105-1.638 2.707-18.361c.485-3.285-1.786-6.341-5.071-6.826-3.291-.488-6.341 1.787-6.826 5.071l-2.707 18.362-7.807-1.151zm-6.363 43.147 96.515 14.23-4.608 31.25-7.807-1.151 2.708-18.362c.485-3.285-1.786-6.341-5.071-6.826-3.288-.487-6.341 1.787-6.826 5.071l-2.708 18.362-11.105-1.638 2.707-18.361c.485-3.285-1.786-6.341-5.071-6.826-3.291-.488-6.341 1.787-6.826 5.071l-2.707 18.361-11.105-1.638 2.707-18.361c.485-3.285-1.786-6.341-5.071-6.826-3.293-.487-6.341 1.787-6.826 5.071l-2.707 18.361-11.103-1.637 2.707-18.361c.485-3.285-1.786-6.341-5.071-6.826-3.289-.489-6.341 1.787-6.826 5.071l-2.707 18.362-7.808-1.151zm-6.361 43.146 96.515 14.231-4.608 31.25-7.807-1.151 2.707-18.362c.485-3.285-1.786-6.341-5.071-6.826-3.291-.486-6.34 1.787-6.826 5.071l-2.707 18.362-11.103-1.638 2.707-18.362c.485-3.285-1.786-6.341-5.071-6.826-3.288-.488-6.341 1.787-6.826 5.071l-2.707 18.362-11.105-1.638 2.707-18.361c.485-3.285-1.786-6.341-5.071-6.826-3.29-.488-6.341 1.787-6.826 5.071l-2.707 18.361-11.103-1.637 2.707-18.361c.485-3.285-1.786-6.341-5.071-6.826-3.293-.487-6.341 1.787-6.826 5.071l-2.707 18.362-7.808-1.152zm-6.363 43.147 96.515 14.231-4.608 31.25-7.807-1.151 2.707-18.361c.485-3.285-1.786-6.341-5.071-6.826-3.289-.487-6.341 1.787-6.826 5.071l-2.707 18.361-11.105-1.637 2.708-18.361c.485-3.285-1.786-6.341-5.071-6.826-3.284-.486-6.341 1.787-6.826 5.071l-2.708 18.362-11.105-1.637 2.707-18.362c.485-3.285-1.786-6.341-5.071-6.826-3.287-.489-6.341 1.787-6.826 5.071l-2.707 18.362-11.105-1.638 2.707-18.361c.485-3.285-1.786-6.341-5.071-6.826-3.288-.488-6.341 1.787-6.826 5.071l-2.707 18.362-7.808-1.152zm74.777 91.855c.196-1.341.907-2.527 2-3.338 1.094-.813 2.441-1.152 3.771-.956 2.785.414 4.716 3.008 4.304 5.784-.001.002-.001.005-.001.008l-2.529 17.181h-10.304zm-221.616 9.497c2.487-.747 4.851-1.872 6.997-3.355 2.454 1.697 5.195 2.926 8.081 3.651v8.887h-9.978c-1.765-3.02-3.463-6.083-5.1-9.183zm49.279-10.972c-3.65 0-7.146-1.585-9.595-4.347-1.14-1.288-2.78-2.026-4.5-2.026s-3.36.737-4.5 2.026c-2.448 2.762-5.944 4.347-9.594 4.347s-7.144-1.585-9.594-4.347c-1.14-1.288-2.78-2.026-4.5-2.026s-3.36.737-4.5 2.026c-2.086 2.355-4.937 3.843-7.992 4.234-3.466-7.462-6.57-15.125-9.279-22.97 2.203-1.649 4.892-2.568 7.677-2.568 3.656 0 7.153 1.58 9.595 4.335 1.14 1.288 2.78 2.026 4.5 2.026s3.36-.737 4.5-2.026c2.441-2.756 5.938-4.335 9.594-4.335s7.152 1.58 9.594 4.335c1.14 1.288 2.78 2.026 4.5 2.026s3.36-.737 4.5-2.026c2.441-2.756 5.938-4.335 9.595-4.335 7.076 0 12.831 5.751 12.831 12.819 0 7.076-5.756 12.832-12.832 12.832zm-22.175 11.268c2.885-.725 5.627-1.955 8.081-3.651 2.454 1.697 5.196 2.926 8.082 3.652v8.887h-16.162v-8.888zm188.8 130.165c-84.762 0-159.553-43.457-203.299-109.252h406.598c-43.746 65.795-118.538 109.252-203.299 109.252z" fill="#333"/></svg>