<svg enable-background="new 0 0 512 512" viewBox="0 0 512 512" xmlns="http://www.w3.org/2000/svg"><circle cx="256.003" cy="256.004" fill="#d7f3ff" r="249.99"/><path d="m481.233 241.412v123.155c-9.909 20.516-22.536 39.48-37.424 56.4v-35.56-68.631-27.731-13.601-34.033h8.165 21.093z" fill="#c6aa85"/><path d="m421.153 443.66c-2.85 2.513-5.76 4.955-8.719 7.336h-11.833v-38.783h-3.067v-26.805c14.491-7.384 31.772-7.384 46.275 0v35.56c-7.047 8.044-14.623 15.621-22.656 22.692z" fill="#c6aa85"/><path d="m443.809 316.777v68.631c-14.503-7.384-31.784-7.384-46.275 0v-68.631l23.137-13.529z" fill="#f4d39d"/><path d="m443.809 289.045v27.732l-23.137-13.529-23.137 13.529v-27.732z" fill="#c6aa85"/><path d="m443.809 275.444v13.601h-46.274v-56.496z" fill="#f4d39d"/><path d="m400.601 450.995h11.833c-32.638 26.228-72.01 44.423-115.098 51.59l-12.411-51.59h44.904 19.277 20.191z" fill="#b3b3b3"/><path d="m400.601 412.213v38.782h-31.303v-38.782h3.067 25.17z" fill="#f4d39d"/><path d="m397.535 385.407v26.806h-25.17v-26.806-68.63-85.299-22.283-28.345h12.579 12.591v51.699 56.496 27.732z" fill="#c6aa85"/><path d="m349.107 450.995h-19.277v-38.783h-3.74v-26.817c14.491-7.372 31.76-7.372 46.239.012h.036v26.805h-3.067v38.783z" fill="#c6aa85"/><path d="m372.365 316.777v68.631h-.036c-14.479-7.384-31.748-7.384-46.239-.012v-68.691l23.017-13.457 23.137 13.529z" fill="#f4d39d"/><path d="m372.365 231.478v85.299h-.12l-23.138-13.529-23.017 13.456v-85.226h2.381z" fill="#f4d39d"/><path d="m372.365 209.195v22.283h-43.894-2.381v-65.191l46.263 42.908z" fill="#f4d39d"/><path d="m329.83 412.213v38.782h-44.904v-38.782h3.74 37.424z" fill="#f4d39d"/><path d="m326.09 385.395v26.818h-37.424v-49.186-39.949-91.6-83.29-16.607-1.082h8.153 21.105 8.166v35.788 65.191 85.226z" fill="#c6aa85"/><path d="m284.926 450.995 12.411 51.59c-13.445 2.237-27.25 3.403-41.332 3.403s-27.9-1.167-41.344-3.415l12.423-51.578h15.994 25.855z" fill="#999"/><path d="m288.666 363.027v49.185h-3.74v38.783h-15.994v-56.473c0-7.143-5.796-12.928-12.928-12.928-7.143 0-12.928 5.784-12.928 12.928v56.473h-15.994v-38.783h-3.74v-49.185h2.417c16.716-16.716 43.762-16.716 60.477 0z" fill="#c6aa85"/><path d="m288.666 323.078v39.949h-2.429c-16.716-16.716-43.762-16.716-60.477 0h-2.417v-39.949h63.279z" fill="#f4d39d"/><path d="m288.666 231.478v91.6h-2.044-63.28v-91.6h22.476 19.049 1.311z" fill="#f4d39d"/><path d="m288.666 148.188v83.29h-22.488v-42.908c0-5.628-4.558-10.186-10.174-10.186-5.628 0-10.186 4.558-10.186 10.186v42.908h-22.476v-83.29z" fill="#f4d39d"/><path d="m288.666 131.581v16.607h-65.324v-16.607l31.977-29.655h1.359l31.976 29.655z" fill="#f4d39d"/><path d="m268.932 394.523v56.473h-25.855v-56.473c0-7.143 5.784-12.928 12.928-12.928 7.13 0 12.927 5.785 12.927 12.928z" fill="#666"/><path d="m266.178 188.571v42.908h-1.311-19.049v-42.908c0-5.628 4.558-10.186 10.186-10.186 5.616 0 10.174 4.558 10.174 10.186z" fill="#666"/><path d="m227.082 412.213v38.782h-44.916v-38.782h3.752 37.424z" fill="#f4d39d"/><path d="m227.082 450.995-12.423 51.578c-43.088-7.155-82.46-25.35-115.098-51.578h11.845 31.291 20.191 19.277z" fill="#b3b3b3"/><path d="m215.177 130.499h8.165v1.082 16.607 83.29 91.6 39.949 49.186h-37.424v-26.818-68.678-85.239-65.191-35.788h8.166z" fill="#c6aa85"/><path d="m162.889 450.995h-20.191v-38.783h-3.055v-26.805h.024c14.479-7.384 31.748-7.384 46.251-.012v26.817h-3.752v38.783z" fill="#c6aa85"/><path d="m185.918 316.717v68.679c-14.503-7.372-31.772-7.372-46.251.012h-.024v-68.631h.12l23.125-13.529z" fill="#f4d39d"/><path d="m185.918 231.478v85.239l-23.029-13.469-23.125 13.529h-.12v-85.299z" fill="#f4d39d"/><path d="m185.918 166.287v65.191h-46.274v-22.283z" fill="#f4d39d"/><path d="m142.698 412.213v38.782h-31.291v-38.782h3.055 25.182z" fill="#f4d39d"/><path d="m139.644 385.407v26.806h-25.182v-26.806-68.63-27.732-56.496-51.699h12.591 12.591v28.345 22.283 85.299z" fill="#c6aa85"/><path d="m91.324 444.069c-8.214-7.179-15.946-14.9-23.137-23.101v-35.56h.012c14.491-7.384 31.772-7.384 46.263 0v26.805h-3.055v38.783h-11.845c-2.79-2.249-5.544-4.546-8.238-6.927z" fill="#c6aa85"/><path d="m114.462 316.777v68.631c-14.491-7.384-31.772-7.384-46.263 0h-.012v-68.631h.012l23.125-13.529z" fill="#f4d39d"/><path d="m114.462 289.045v27.732l-23.138-13.529-23.125 13.529h-.012v-27.732z" fill="#c6aa85"/><path d="m114.462 232.549v56.496h-46.275v-13.601h.012z" fill="#f4d39d"/><path d="m68.187 385.407v35.56c-14.888-16.92-27.515-35.885-37.424-56.4v-123.155h8.165 21.093 8.165v34.033 13.601 27.731 68.63z" fill="#c6aa85"/><g fill="#333"><path d="m256.001.001c-141.159 0-256.001 114.841-256.001 255.999s114.842 255.999 256.001 255.999 255.999-114.841 255.999-255.999-114.841-255.999-255.999-255.999zm0 12.025c134.528 0 243.974 109.446 243.974 243.974 0 27.199-4.477 53.371-12.728 77.822v-92.41c0-3.32-2.691-6.013-6.013-6.013h-2.153v-64.859c0-3.32-2.691-6.013-6.013-6.013-3.321 0-6.013 2.693-6.013 6.013v64.859h-9.069v-64.859c0-3.32-2.691-6.013-6.013-6.013s-6.013 2.693-6.013 6.013v64.859h-2.151c-3.322 0-6.013 2.693-6.013 6.013v20.261l-3.626-3.361v-28.462c0-3.32-2.691-6.013-6.013-6.013s-6.013 2.693-6.013 6.013v17.312l-4.986-4.624v-28.34c0-3.32-2.691-6.013-6.013-6.013-3.321 0-6.013 2.693-6.013 6.013v17.188l-1.583-1.467v-49.064c0-3.32-2.691-6.013-6.013-6.013h-6.577v-61.351c0-3.32-2.691-6.013-6.013-6.013s-6.013 2.693-6.013 6.013v61.354h-6.576c-3.322 0-6.013 2.693-6.013 6.013v14.563l-3.254-3.017v-29c0-3.32-2.691-6.013-6.013-6.013s-6.013 2.693-6.013 6.013v17.851l-3.315-3.074v-28.624c0-3.32-2.691-6.013-6.013-6.013s-6.013 2.693-6.013 6.013v17.473l-3.626-3.361v-33.164c0-3.32-2.691-6.013-6.013-6.013h-2.153v-79.725c0-3.32-2.691-6.013-6.013-6.013s-6.013 2.693-6.013 6.013v79.722h-9.072v-79.722c0-3.32-2.691-6.013-6.013-6.013-3.321 0-6.013 2.693-6.013 6.013v79.722h-.954l-6.199-5.747c0-.012.004-.023.004-.034v-30.553c0-3.32-2.691-6.013-6.013-6.013-3.321 0-6.013 2.693-6.013 6.013v19.44l-9.624-8.923v-29.174c0-3.32-2.691-6.013-6.013-6.013s-6.013 2.693-6.013 6.013v29.172l-9.624 8.923v-19.438c0-3.32-2.691-6.013-6.013-6.013s-6.013 2.693-6.013 6.013v30.552c0 .012.004.022.004.032l-6.2 5.748h-.954v-79.72c0-3.32-2.691-6.013-6.013-6.013s-6.013 2.693-6.013 6.013v79.722h-9.072v-79.722c0-3.32-2.691-6.013-6.013-6.013-3.321 0-6.013 2.693-6.013 6.013v79.722h-2.153c-3.321 0-6.013 2.693-6.013 6.013v33.164l-3.625 3.36v-17.472c0-3.32-2.691-6.013-6.013-6.013s-6.013 2.693-6.013 6.013v28.622l-3.315 3.074v-17.85c0-3.32-2.691-6.013-6.013-6.013s-6.013 2.693-6.013 6.013v29l-3.254 3.017v-14.562c0-3.32-2.691-6.013-6.013-6.013h-6.577v-61.353c0-3.32-2.691-6.013-6.013-6.013-3.321 0-6.013 2.693-6.013 6.013v61.354h-6.576c-3.321 0-6.013 2.693-6.013 6.013v49.064l-1.583 1.467v-17.187c0-3.32-2.691-6.013-6.013-6.013s-6.013 2.693-6.013 6.013v28.339l-4.986 4.623v-17.312c0-3.32-2.691-6.013-6.013-6.013s-6.013 2.693-6.013 6.013v28.462l-3.631 3.366v-20.264c0-3.32-2.691-6.013-6.013-6.013h-2.148v-64.859c0-3.32-2.691-6.013-6.013-6.013s-6.013 2.693-6.013 6.013v64.858h-9.069v-64.859c0-3.32-2.691-6.013-6.013-6.013s-6.013 2.693-6.013 6.013v64.859h-2.156c-3.321 0-6.013 2.693-6.013 6.013v92.398c-8.236-24.448-12.712-50.616-12.712-77.811 0-134.528 109.447-243.974 243.975-243.974zm-6.916 432.957v-50.461c0-3.813 3.103-6.916 6.916-6.916s6.916 3.103 6.916 6.916v50.461zm6.916-69.403c-10.446 0-18.942 8.497-18.942 18.942v50.461h-3.966v-32.769c0-2.517-1.549-4.666-3.742-5.562v-40.036l.665.665c14.33-14.329 37.642-14.329 51.971 0l.664-.664v40.035c-2.194.896-3.742 3.046-3.742 5.562v32.769h-3.965v-50.461c-.002-10.445-8.499-18.942-18.943-18.942zm-219.225-128.154h25.398v156.564c-9.75-12.74-18.277-26.46-25.398-40.993zm71.675-1.107v36.718h-34.251v-4.961zm25.177-59.45v219.332h-13.153v-219.332zm46.272-6.803v45.404h-34.246v-13.653zm76.099-70.571 26.65 24.71v7.977h-53.299v-7.977zm110.348 102.324v13.652h-34.247v-45.404zm25.177-24.95v219.332h-13.152v-219.332zm46.273 91.204v4.964h-34.247v-36.718zm-34.247 16.99h34.247v11.23l-14.085-8.235c-1.875-1.096-4.195-1.096-6.069 0l-14.093 8.236zm-48.431 149.92v-32.25c0-3.32-2.691-6.013-6.013-6.013-3.321 0-6.013 2.693-6.013 6.013v32.25h-7.249v-32.769c0-2.517-1.549-4.666-3.742-5.562v-17.388c10.946-4.492 23.305-4.484 34.247.022v17.721c-1.819 1.034-3.062 2.967-3.062 5.208v32.769h-8.168zm-186.212 0v-32.25c0-3.32-2.691-6.013-6.013-6.013s-6.013 2.693-6.013 6.013v32.25h-8.165v-32.769c0-2.243-1.242-4.175-3.062-5.208v-17.721c10.942-4.506 23.301-4.512 34.246-.02v17.389c-2.193.896-3.742 3.046-3.742 5.562v32.769h-7.25v-.002zm10.993-68.495c-11.13-3.486-23.117-3.48-34.246.017v-56.214l17.236-10.079 17.009 9.942v56.334zm0-70.264-13.975-8.168c-1.875-1.096-4.195-1.096-6.069 0l-14.201 8.304v-68.864h34.245zm8.282 112.003h32.885v26.756h-32.885zm94.468-192.757h-10.458v-36.903c0-8.928-7.264-16.191-16.191-16.191s-16.191 7.264-16.191 16.191v36.903h-10.46v-71.264h53.299v71.264zm-22.484 0h-8.331v-36.903c0-2.297 1.869-4.166 4.166-4.166s4.166 1.869 4.166 4.166v36.903zm-30.816 12.026h53.299v79.564h-53.299zm0 91.59h53.299v23.329c-16.13-10.529-37.17-10.527-53.299.001zm61.583 115.897v-26.756h32.885v26.756zm41.167-207.487h34.247v68.865l-14.201-8.304c-1.875-1.096-4.195-1.097-6.069 0l-13.976 8.168v-68.729zm0 82.659 17.01-9.942 17.236 10.079v56.214c-11.129-3.498-23.116-3.504-34.247-.018v-56.333zm-12.025-183.64v269.687h-25.399v-269.687zm-102.75 0v269.687h-25.399v-269.687zm-143.125 158.548h34.25v11.231l-14.094-8.238c-1.877-1.096-4.195-1.096-6.069 0l-14.088 8.238v-11.231zm0 25.163 17.123-10.013 17.127 10.01v56.273c-11.131-3.493-23.121-3.492-34.25.002zm43.215 98.001h19.275v26.756h-19.275zm102.033 38.786-9.302 38.621c-33.706-6.436-64.971-19.826-92.243-38.621zm174.65 0c-27.274 18.796-58.541 32.186-92.249 38.622l-9.291-38.622zm-18.787-12.03v-26.756h19.275v26.756zm28.239-124.76 17.126-10.01 17.12 10.01v56.275c-11.13-3.493-23.117-3.493-34.247-.001v-56.274zm46.272-72.797h25.398v115.578c-7.122 14.532-15.648 28.252-25.398 40.991zm-375.622 171.088v-29.238c10.945-4.501 23.306-4.501 34.25-.004v17.732c-1.819 1.034-3.062 2.967-3.062 5.208v32.769h-3.51c-1.53-1.249-3.044-2.517-4.543-3.804v-28.449c0-3.32-2.691-6.013-6.013-6.013s-6.013 2.693-6.013 6.013v17.41c-3.826-3.751-7.533-7.628-11.109-11.624zm147.842 79.086 9.776-40.592h11.207c.016 0 .031.005.047.005h25.858c.016 0 .031-.005.047-.005h11.212l9.765 40.593c-11.1 1.552-22.432 2.374-33.952 2.374-11.524 0-22.857-.821-33.96-2.375zm205.124-67.925v-16.945c0-3.32-2.691-6.013-6.013-6.013-3.321 0-6.013 2.693-6.013 6.013v28.046c-1.652 1.425-3.329 2.825-5.02 4.207h-3.509v-32.769c0-2.243-1.242-4.175-3.062-5.208v-17.732c10.945-4.499 23.303-4.498 34.247.002v29.244c-3.427 3.828-6.972 7.549-10.63 11.155z"/><path d="m355.119 281.979v-24.854c0-3.32-2.691-6.013-6.013-6.013-3.321 0-6.013 2.693-6.013 6.013v24.853c0 3.32 2.691 6.013 6.013 6.013 3.321.001 6.013-2.692 6.013-6.012z"/><path d="m256.001 263.941c-3.321 0-6.013 2.693-6.013 6.013v24.854c0 3.32 2.691 6.013 6.013 6.013s6.013-2.693 6.013-6.013v-24.854c-.001-3.321-2.692-6.013-6.013-6.013z"/><path d="m355.119 358.141v-24.853c0-3.32-2.691-6.013-6.013-6.013-3.321 0-6.013 2.693-6.013 6.013v24.853c0 3.32 2.691 6.013 6.013 6.013 3.321 0 6.013-2.692 6.013-6.013z"/><path d="m427.169 358.141v-24.853c0-3.32-2.691-6.013-6.013-6.013-3.321 0-6.013 2.693-6.013 6.013v24.853c0 3.32 2.691 6.013 6.013 6.013s6.013-2.692 6.013-6.013z"/><path d="m162.894 287.992c3.321 0 6.013-2.693 6.013-6.013v-24.854c0-3.32-2.691-6.013-6.013-6.013s-6.013 2.693-6.013 6.013v24.853c0 3.321 2.692 6.014 6.013 6.014z"/><path d="m156.881 333.288v24.853c0 3.32 2.691 6.013 6.013 6.013 3.321 0 6.013-2.693 6.013-6.013v-24.853c0-3.32-2.691-6.013-6.013-6.013-3.321 0-6.013 2.693-6.013 6.013z"/><path d="m97.341 358.141v-24.853c0-3.32-2.691-6.013-6.013-6.013-3.321 0-6.013 2.693-6.013 6.013v24.853c0 3.32 2.691 6.013 6.013 6.013 3.321 0 6.013-2.692 6.013-6.013z"/></g></svg>