<svg enable-background="new 0 0 511.999 511.999" viewBox="0 0 511.999 511.999" xmlns="http://www.w3.org/2000/svg"><circle cx="256.003" cy="256.003" fill="#d7f3ff" r="249.99"/><path d="m317.035 160.117h-21.647-78.768-21.646l16.752-6.939 32.601-13.48 11.677-4.835 11.677 4.835 32.59 13.48z" fill="#f2f2f2"/><path d="m487.391 350.725h.012c-11.761 28.717-28.717 54.753-49.702 76.952-45.565-24.953-110.119-40.515-181.696-40.515-71.589 0-136.143 15.561-181.708 40.515-20.985-22.199-37.941-48.235-49.702-76.94l.024-.012h19.734 21.646 31.868 26.457 49.305 57.723 49.305 57.723 49.305 26.457 31.868 21.646z" fill="#ccc"/><path d="m446.009 333.893h21.646v16.836h-21.646z" fill="#ccc"/><path d="m467.656 237.082v96.807h-21.646v-41.489-18.039-36.077-1.202z" fill="#fff"/><path d="m467.656 219.043v18.039h-21.646-31.868-96.807-15.633-18.448v-18.039h33.781z" fill="#ccc"/><path d="m467.656 202.207v16.836h-150.621v-16.836h51.337 35.272 15.044 35.271z" fill="#f2f2f2"/><path d="m453.959 202.207h-35.271c0-9.741 7.889-17.642 17.63-17.642s17.641 7.901 17.641 17.642z" fill="#fff"/><path d="m446.01 333.889v16.836h-31.868v-16.836-41.489h31.868z" fill="#f2f2f2"/><path d="m414.141 274.366h31.868v18.039h-31.868z" fill="#ccc"/><path d="m446.01 238.284v36.077h-31.868v-37.279h31.868z" fill="#f2f2f2"/><path d="m437.7 427.677c-45.565 48.223-110.119 78.311-181.696 78.311-71.589 0-136.143-30.088-181.708-78.311 45.565-24.953 110.119-40.515 181.708-40.515 71.577 0 136.131 15.562 181.696 40.515z" fill="#9ad14b"/><path d="m387.684 333.893h26.457v16.836h-26.457z" fill="#ccc"/><path d="m414.142 292.4v41.489h-26.457v-55.919c0-13.613-11.04-24.653-24.653-24.653-13.625 0-24.653 11.04-24.653 24.653v55.919h-21.045v-96.807h96.807v37.28 18.038z" fill="#f2f2f2"/><path d="m403.644 202.207h-35.271c0-9.741 7.889-17.642 17.63-17.642s17.641 7.901 17.641 17.642z" fill="#fff"/><path d="m338.38 333.889v16.836h-57.723v-16.836h21.045 15.633z" fill="#ccc"/><path d="m301.701 237.087h15.633v96.807h-15.633z" fill="#fff"/><path d="m317.035 202.207v16.836h-33.781-54.512-33.768v-16.836h21.646 78.768z" fill="#f2f2f2"/><path d="m295.387 160.122h21.646v42.09h-21.646z" fill="#fff"/><path d="m301.702 237.082v96.807h-21.045v-55.919c0-13.613-11.04-24.653-24.653-24.653-13.625 0-24.653 11.04-24.653 24.653v55.919h-21.045v-96.807h18.435 54.512z" fill="#f2f2f2"/><path d="m291.708 128.261c8.959 3.812 13.12 14.178 9.296 23.137l-.734 1.78-32.59-13.481.878-2.141c3.825-8.958 14.191-13.119 23.15-9.295z" fill="#fff"/><path d="m216.619 160.122h78.768v42.09h-78.768z" fill="#ccc"/><path d="m228.741 219.048h54.512v18.039h-54.512z" fill="#ccc"/><path d="m243.437 137.557.89 2.141-32.602 13.481-.734-1.78c-3.824-8.959.337-19.325 9.296-23.137 8.96-3.825 19.326.336 23.15 9.295z" fill="#fff"/><path d="m231.352 333.889v16.836h-57.724v-16.836h21.045 15.634z" fill="#ccc"/><path d="m228.742 219.043v18.039h-18.435-15.634-96.807-31.868-21.646v-18.039h150.622z" fill="#ccc"/><path d="m194.973 160.122h21.646v42.09h-21.646z" fill="#fff"/><path d="m194.672 237.087h15.633v96.807h-15.633z" fill="#fff"/><path d="m194.974 202.207v16.836h-150.622v-16.836h13.685 35.284 15.032 35.283z" fill="#f2f2f2"/><path d="m194.673 237.082v96.807h-21.045v-55.919c0-13.613-11.04-24.653-24.653-24.653-13.625 0-24.653 11.04-24.653 24.653v55.919h-26.456v-41.489-18.039-36.077-1.203h96.807z" fill="#f2f2f2"/><path d="m143.636 202.207h-35.283c0-9.741 7.901-17.642 17.642-17.642s17.641 7.901 17.641 17.642z" fill="#fff"/><path d="m97.865 333.893h26.457v16.836h-26.457z" fill="#ccc"/><path d="m65.998 274.366h31.868v18.039h-31.868z" fill="#ccc"/><path d="m97.866 238.284v36.077h-31.868v-37.279h31.868z" fill="#f2f2f2"/><path d="m93.321 202.207h-35.284c0-9.741 7.901-17.642 17.642-17.642s17.642 7.901 17.642 17.642z" fill="#fff"/><path d="m44.352 333.893h21.646v16.836h-21.646z" fill="#ccc"/><path d="m65.998 292.4v41.489h-21.646v-96.807h21.646v37.279z" fill="#fff"/><path d="m255.999 0c-141.158 0-255.999 114.842-255.999 255.999s114.841 255.999 255.999 255.999 255.999-114.842 255.999-255.999-114.839-255.999-255.999-255.999zm0 12.026c134.528 0 243.974 109.446 243.974 243.974 0 31.281-5.925 61.204-16.699 88.712h-9.609v-119.656h3.006c3.321 0 6.013-2.693 6.013-6.013s-2.691-6.013-6.013-6.013h-3.006v-10.823c0-3.32-2.691-6.013-6.013-6.013h-8.484c-2.671-10.133-11.886-17.638-22.845-17.638-10.96 0-20.177 7.504-22.846 17.638h-4.625c-2.671-10.133-11.886-17.638-22.845-17.638-10.96 0-20.177 7.504-22.846 17.638h-40.114v-36.077c0-2.433-1.466-4.626-3.714-5.556l-11.516-4.765c1.092-4.685.744-9.58-1.086-14.135-2.356-5.861-6.852-10.455-12.662-12.935s-12.236-2.547-18.1-.194c-4.721 1.896-8.596 5.199-11.23 9.44l-6.439-2.665c-1.473-.61-3.127-.61-4.597 0l-6.439 2.664c-2.634-4.241-6.51-7.543-11.23-9.44-5.863-2.356-12.291-2.286-18.101.194-5.811 2.48-10.307 7.074-12.662 12.935-1.83 4.557-2.177 9.451-1.085 14.136l-11.515 4.765c-2.249.93-3.714 3.123-3.714 5.556v36.077h-40.118c-2.671-10.133-11.886-17.638-22.846-17.638s-20.176 7.504-22.846 17.638h-4.625c-2.671-10.133-11.886-17.638-22.846-17.638s-20.177 7.504-22.846 17.638h-8.484c-3.32 0-6.013 2.693-6.013 6.013v10.823h-3.006c-3.32 0-6.013 2.693-6.013 6.013s2.693 6.013 6.013 6.013h3.006v119.656h-9.609c-10.775-27.509-16.7-57.43-16.7-88.712.002-134.528 109.448-243.974 243.975-243.974zm.005 369.124c-68.431 0-132.235 13.822-180.354 38.988-17.046-18.713-31.225-40.08-41.839-63.399h444.379c-10.615 23.32-24.793 44.689-41.841 63.402-48.12-25.169-111.919-38.991-180.345-38.991zm-67.048-172.93v4.81h-138.596v-4.81zm-123.208-12.026c2.041-3.358 5.722-5.612 9.931-5.612 4.208 0 7.889 2.255 9.93 5.612zm50.318 0c2.041-3.358 5.722-5.612 9.93-5.612s7.89 2.255 9.931 5.612zm100.363-56.049c1.157-2.881 3.368-5.139 6.225-6.358 2.856-1.218 6.015-1.253 8.897-.095 1.672.671 3.123 1.705 4.293 3.006l-20.23 8.371c-.086-1.661.177-3.335.815-4.924zm39.57 1.227 30.774 12.734h-61.546zm33.373 24.758v30.064h-66.743v-30.064zm12.026 0h9.621v30.064h-9.621zm-5.013-21.062-20.23-8.371c1.171-1.3 2.623-2.334 4.293-3.006 2.884-1.157 6.042-1.122 8.895.095 2.856 1.219 5.066 3.477 6.224 6.358.641 1.59.904 3.262.818 4.924zm-95.403 21.062h9.621v30.064h-9.621zm110.036 42.09v4.81h-110.035v-4.81zm150.622 0v4.81h-138.596v-4.81zm-85.565-12.026c2.041-3.358 5.723-5.612 9.931-5.612s7.889 2.255 9.93 5.612zm50.316 0c2.041-3.358 5.723-5.612 9.931-5.612s7.889 2.255 9.93 5.612zm-32.696 148.518v-4.81h14.431v4.81zm-107.029 0v-4.81h45.698v4.81zm-107.03 0v-4.81h45.698v4.81zm-75.762 0v-4.81h14.431v4.81zm-53.514 0v-4.81h9.621v4.81zm0-101.617h9.621v84.781h-9.621zm245.325 0v84.781h-9.019v-49.907c0-16.909-13.756-30.666-30.666-30.666-16.909 0-30.666 13.756-30.666 30.666v49.907h-9.019v-84.781zm-18.44-18.039v6.013h-42.49v-6.013zm130.881 18.039v84.781h-14.431v-49.907c0-16.909-13.756-30.666-30.666-30.666s-30.666 13.756-30.666 30.666v49.907h-9.019v-84.781zm53.514 84.781h-9.621v-84.781h9.621zm-41.489-47.502h19.842v6.013h-19.842zm19.843-12.025h-19.842v-25.254h19.842zm-128.675 59.527h-3.608v-84.781h3.608zm-107.03 0h-3.608v-84.781h3.608zm-15.634 0h-9.019v-49.907c0-16.909-13.756-30.666-30.666-30.666-16.909 0-30.666 13.756-30.666 30.666v49.907h-14.431v-84.781h84.781v84.781zm-116.649-47.502h19.842v6.013h-19.842zm19.843-12.025h-19.843v-25.254h19.842v25.254zm-19.843 30.064h19.842v46.299h-19.842zm58.325-20.444c0-10.278 8.363-18.64 18.64-18.64s18.64 8.361 18.64 18.64v66.743h-37.28zm107.029 0c0-10.278 8.363-18.64 18.64-18.64s18.64 8.361 18.64 18.64v66.743h-37.28zm107.029 0c0-10.278 8.361-18.64 18.64-18.64s18.64 8.361 18.64 18.64v66.743h-37.28zm75.762 20.444h19.842v46.299h-19.842zm31.868 41.488h9.621v4.81h-9.621zm9.621-108.832h-172.369v-6.013h172.369zm-238.911-6.013v6.013h-172.369v-6.013zm-138.377 204.147c45.61-22.952 107.585-36.027 171.652-36.027 64.062 0 126.034 13.076 171.643 36.029-44.114 43.721-104.779 70.77-171.648 70.77-66.868-.001-127.533-27.05-171.647-70.772z" fill="#333"/></svg>