<svg enable-background="new 0 0 511.999 511.999" viewBox="0 0 511.999 511.999" xmlns="http://www.w3.org/2000/svg"><circle cx="256.003" cy="256.003" fill="#d7f3ff" r="249.99"/><path d="m473.441 378.985.18.108c-42.944 75.774-124.31 126.895-217.617 126.895-93.355 0-174.757-51.169-217.689-127.003h6.061 21.622 21.646 24.653 20.444 20.444 20.444 20.444 20.444 20.444 20.444 20.444 20.444 20.444 20.444 20.444 20.444 20.444 24.653 21.646 21.622z" fill="#e6e6e6"/><path d="m444.808 378.985h-21.647v-40.887h-136.491v-26.096h158.005 21.755v66.983z" fill="#f9d2af"/><path d="m444.675 285.185v26.817h-158.005v-26.817h136.491z" fill="#f9d2af"/><path d="m296.29 378.985h-20.443-20.444v-19.241-21.646h31.267 136.491v40.887h-24.652-20.444-20.444-20.443-20.444z" fill="#f9d2af"/><path d="m423.161 285.185h-136.491v-23.174h67.945 42.932z" fill="#46b779"/><path d="m403.247 138.219c6.253 0 11.316 5.063 11.316 11.316s-5.063 11.316-11.316 11.316c-3.824 0-67.212 0-71.397 0-6.253 0-11.328-5.063-11.328-11.316s5.075-11.316 11.328-11.316c.625 0 1.239.06 1.84.156-.012-.216-.036-.445-.036-.661 0-12.783 10.354-23.149 23.137-23.149 9.296 0 17.281 5.484 20.973 13.385 1.431-.409 2.946-.637 4.51-.637 7.612 0 14.022 5.075 16.078 12.026 1.479-.712 3.139-1.12 4.895-1.12z" fill="#fff"/><path d="m354.615 262.011h-67.945v-23.173h42.33z" fill="#46b779"/><path d="m286.67 312.002v26.096h-31.267v-188.804h31.267v89.544 23.173 23.174z" fill="#f9d2af"/><path d="m286.67 109.609v39.685h-31.267v-39.685h21.045z" fill="#f9d2af"/><path d="m255.402 87.638h21.045v21.971h-21.045z" fill="#f9d2af"/><path d="m255.402 71.132h21.045v16.511h-21.045z" fill="#f9d2af"/><g fill="#dbae86"><path d="m194.072 378.985h-20.444-20.444-20.443-20.444-24.653v-40.887h136.492 31.267v21.646 19.241h-20.444-20.443z"/><path d="m255.403 149.294v188.804h-31.267v-26.096-26.817-23.174-23.173-89.544z"/><path d="m255.403 109.609v39.685h-31.267v-39.685h10.222z"/><path d="m234.357 87.638h21.045v21.971h-21.045z"/><path d="m234.357 71.132h21.045v16.511h-21.045z"/></g><path d="m65.998 378.985h-21.622v-66.983h21.755 158.005v26.096h-136.492v40.887z" fill="#f9d2af"/><path d="m224.136 285.185v26.817h-158.005v-26.817h21.513z" fill="#f9d2af"/><path d="m224.136 262.011v23.174h-136.492l25.615-23.174h42.932z" fill="#46b779"/><path d="m224.136 238.838v23.173h-67.945l25.615-23.173z" fill="#46b779"/><path d="m131.935 164.928c8.298 0 15.032 6.734 15.032 15.032s-6.734 15.032-15.032 15.032c-4.846 0-18.135 0-22.644 0-7.083 0-12.831-5.748-12.831-12.831s5.748-12.831 12.831-12.831c3.62 0 6.879 1.503 9.212 3.908 2.465-4.919 7.552-8.31 13.432-8.31z" fill="#fff"/><path d="m255.999 0c-141.158 0-255.999 114.842-255.999 255.999s114.841 255.999 255.999 255.999 255.999-114.842 255.999-255.999-114.84-255.999-255.999-255.999zm0 12.026c134.528 0 243.974 109.446 243.974 243.974 0 40.548-9.956 78.81-27.532 112.491v-56.488c0-3.32-2.693-6.013-6.013-6.013h-15.742v-20.804c0-3.32-2.693-6.013-6.013-6.013h-19.198l-23.897-21.62c-1.105-1.001-2.543-1.554-4.033-1.554h-40.615l-23.897-21.62c-1.105-1.001-2.543-1.554-4.033-1.554h-36.318v-123.216c0-3.32-2.693-6.013-6.013-6.013h-4.209v-32.469c0-3.32-2.693-6.013-6.013-6.013h-15.032v-22.848c0-3.32-2.693-6.013-6.013-6.013s-6.013 2.693-6.013 6.013v22.849h-15.032c-3.32 0-6.013 2.693-6.013 6.013v32.469h-4.209c-3.32 0-6.013 2.693-6.013 6.013v123.215h-36.318c-1.491 0-2.928.553-4.033 1.554l-23.897 21.62h-40.616c-1.491 0-2.928.553-4.033 1.554l-23.897 21.62h-19.199c-3.32 0-6.013 2.693-6.013 6.013v20.804h-15.741c-3.32 0-6.013 2.693-6.013 6.013v54.181c-16.834-33.115-26.336-70.558-26.336-110.183 0-134.529 109.446-243.975 243.973-243.975zm188.809 320.059c-3.32 0-6.013 2.693-6.013 6.013v34.875h-9.621v-34.875c0-3.32-2.693-6.013-6.013-6.013h-130.478v-14.07h167.734v54.957h-9.597v-34.875c0-3.32-2.692-6.012-6.012-6.012zm-46.299 21.646c-3.32 0-6.013 2.693-6.013 6.013v13.228h-8.418v-13.228c0-3.32-2.693-6.013-6.013-6.013s-6.013 2.693-6.013 6.013v13.228h-8.418v-13.228c0-3.32-2.693-6.013-6.013-6.013s-6.013 2.693-6.013 6.013v13.228h-8.418v-13.228c0-3.32-2.693-6.013-6.013-6.013s-6.013 2.693-6.013 6.013v13.228h-8.418v-13.228c0-3.32-2.693-6.013-6.013-6.013s-6.013 2.693-6.013 6.013v13.228h-8.418v-13.228c0-3.32-2.693-6.013-6.013-6.013s-6.013 2.693-6.013 6.013v13.228h-8.418v-13.228c0-3.32-2.693-6.013-6.013-6.013s-6.013 2.693-6.013 6.013v13.228h-8.418v-13.228-15.634h25.254 130.479v28.862h-12.627v-13.228c.002-3.32-2.691-6.013-6.011-6.013zm-157.537 19.241v-13.228c0-3.32-2.693-6.013-6.013-6.013s-6.013 2.693-6.013 6.013v13.228h-8.418v-13.228c0-3.32-2.693-6.013-6.013-6.013s-6.013 2.693-6.013 6.013v13.228h-8.418v-13.228c0-3.32-2.693-6.013-6.013-6.013s-6.013 2.693-6.013 6.013v13.228h-8.418v-13.228c0-3.32-2.693-6.013-6.013-6.013s-6.013 2.693-6.013 6.013v13.228h-8.418v-13.228c0-3.32-2.693-6.013-6.013-6.013s-6.013 2.693-6.013 6.013v13.228h-8.418v-13.228c0-3.32-2.693-6.013-6.013-6.013s-6.013 2.693-6.013 6.013v13.228h-8.418v-13.228c0-3.32-2.693-6.013-6.013-6.013s-6.013 2.693-6.013 6.013v13.228h-12.625v-28.862h130.479 25.254v15.633 13.228h-8.418zm-168.961 0v-34.875c0-3.32-2.693-6.013-6.013-6.013s-6.013 2.693-6.013 6.013v34.875h-9.597v-54.957h167.734v14.07h-130.478c-3.32 0-6.013 2.693-6.013 6.013v34.875h-9.62zm146.112-81.775v14.792h-145.981v-14.792zm0-23.173v11.148h-114.87l12.323-11.148zm177.107 0 12.323 11.148h-114.87v-11.148zm43.432 23.173v14.792h-145.98v-14.792zm-208.513-135.89h19.241v176.778h-19.241zm31.267 0h19.241v176.778h-19.241zm31.267 100.691v-11.148h34.001l12.323 11.148zm-31.267-112.717v-27.659h19.241v27.659zm0-39.684v-9.945h9.019v9.945zm9.019-21.97h-9.019v-4.486h9.019zm-21.045 0h-9.019v-4.486h9.019zm-9.019 12.026h9.019v9.945h-9.019zm-10.222 21.969h19.241v27.659h-19.241zm-12.026 140.376h-46.324l12.323-11.148h34.001zm37.876 243.976c-87.195 0-163.838-45.99-206.987-114.975h413.976c-43.149 68.985-119.793 114.975-206.989 114.975z" fill="#333"/><path d="m331.845 166.867h71.398c9.557 0 17.333-7.775 17.333-17.331 0-9.557-7.775-17.333-17.333-17.333-.507 0-1.011.022-1.512.066-4.299-7.034-12.303-11.459-20.827-10.923-5.373-7.894-14.406-12.797-24.106-12.797-14.342 0-26.298 10.407-28.714 24.066-7.754 1.723-13.57 8.656-13.57 16.921-.001 9.557 7.773 17.331 17.331 17.331zm0-22.637c.242 0 .524.026.863.083 1.771.292 3.581-.225 4.933-1.406s2.104-2.905 2.054-4.7c-.005-.171-.016-.34-.031-.58.046-9.41 7.714-17.051 17.134-17.051 6.615 0 12.706 3.892 15.516 9.914 1.243 2.665 4.229 4.037 7.064 3.251 5.865-1.633 11.599 1.856 13.203 7.302.499 1.692 1.715 3.081 3.328 3.797 1.614.717 3.459.689 5.047-.077.731-.351 1.502-.53 2.287-.53 2.926 0 5.307 2.38 5.307 5.307 0 2.926-2.38 5.306-5.307 5.306h-71.398c-2.926 0-5.307-2.38-5.307-5.306.001-2.93 2.38-5.31 5.307-5.31z" fill="#333"/><path d="m109.291 201.005h22.646c11.604 0 21.045-9.441 21.045-21.045s-9.441-21.045-21.045-21.045c-5.674 0-10.946 2.238-14.816 6.097-2.423-1.11-5.078-1.694-7.829-1.694-10.39 0-18.843 8.453-18.843 18.843s8.45 18.844 18.842 18.844zm0-25.661c1.856 0 3.592.74 4.892 2.08 1.355 1.401 3.309 2.058 5.232 1.761 1.927-.296 3.59-1.507 4.463-3.249 1.544-3.081 4.632-4.995 8.057-4.995 4.974 0 9.019 4.045 9.019 9.019s-4.045 9.019-9.019 9.019h-22.644c-3.759 0-6.817-3.058-6.817-6.817s3.057-6.818 6.817-6.818z" fill="#333"/></svg>