<svg enable-background="new 0 0 511.999 511.999" viewBox="0 0 511.999 511.999" xmlns="http://www.w3.org/2000/svg"><circle cx="256.003" cy="256.003" fill="#d7f3ff" r="249.99"/><path d="m420.756 378.985h52.925c-13.902 24.568-31.844 46.539-52.925 65.011v-42.162z" fill="#999"/><path d="m347.556 488.202.168.421c-13.096 5.171-26.733 9.26-40.815 12.182v-47.261h40.647z" fill="#999"/><path d="m420.756 401.834v42.162c-21.418 18.796-46.082 33.985-73.032 44.627l-.168-.421v-34.658-92.598h41.934v40.887z" fill="#ccc"/><path d="m205.087 466.773v34.021c-22.476-4.642-43.846-12.314-63.664-22.56v-11.46h63.664z" fill="#ccc"/><path d="m99.67 393.235v57.832c-20.42-16.367-38.218-35.897-52.636-57.832z" fill="#ccc"/><path d="m141.423 466.773v11.46c-14.852-7.66-28.826-16.776-41.753-27.166v-57.832-21.465h41.753z" fill="#999"/><path d="m306.909 453.544v47.261c-6.746 1.395-13.601 2.513-20.54 3.355v-74.319h10.114 10.426z" fill="#e6e6e6"/><path d="m286.369 429.842h-9.32v-.217-37.809h9.813 9.621v38.026z" fill="#e6e6e6"/><path d="m277.049 391.816h-9.428v-1.828-30.461h15.237 4.004v32.289z" fill="#e6e6e6"/><path d="m225.639 429.842h-10.125v-38.026h9.62 9.825v37.809.217z" fill="#e6e6e6"/><path d="m225.639 429.842v74.319c-6.939-.842-13.793-1.96-20.552-3.367v-34.021-36.931h10.426z" fill="#e6e6e6"/><g fill="#fff"><path d="m286.369 429.842v74.319c-6.674.806-13.433 1.359-20.251 1.623v-75.942h10.931z"/><path d="m266.118 429.842v75.942c-3.355.132-6.722.204-10.114.204-3.391 0-6.758-.072-10.126-.204v-75.942h10.126z"/><path d="m245.879 429.842v75.942c-6.819-.265-13.565-.818-20.239-1.623v-74.319h9.32z"/><path d="m266.118 429.842h-10.114v-.217-37.809h11.617 9.428v37.809.217z"/><path d="m245.879 429.842h-10.92v-.217-37.809h9.416 11.629v37.809.217z"/><path d="m256.004 391.816h-11.629v-1.828-30.461h2.009 19.241 1.996v30.461 1.828z"/></g><path d="m234.959 391.816h-9.825v-32.289h4.005 15.236v30.461 1.828z" fill="#e6e6e6"/><path d="m244.375 359.527h-15.236v-162.527h4.81 12.435v162.527z" fill="#e6e6e6"/><path d="m267.621 359.527h-1.996v-162.527h12.422 4.811v162.527z" fill="#e6e6e6"/><path d="m265.625 197v162.527h-19.241v-162.527h9.62z" fill="#fff"/><path d="m256.004 58.296 14.936 94.606-.914.228c-3.812-3.151-8.695-5.039-14.022-5.039-5.7 0-10.907 2.165-14.828 5.724l-.12-.914z" fill="#fff"/><path d="m256.004 197h-9.621-12.435v-26.865c0-6.47 2.79-12.278 7.227-16.319 3.92-3.56 9.127-5.724 14.828-5.724 5.327 0 10.21 1.888 14.022 5.039 4.894 4.041 8.021 10.162 8.021 17.004v26.865h-12.423z" fill="#fff"/><path d="m435.716 201.546c6.253 0 11.316 5.075 11.316 11.328s-5.063 11.316-11.316 11.316c-3.824 0-67.212 0-71.397 0-6.253 0-11.328-5.063-11.328-11.316s5.075-11.328 11.328-11.328c.625 0 1.239.072 1.84.168-.012-.229-.036-.445-.036-.673 0-12.783 10.354-23.149 23.137-23.149 9.296 0 17.281 5.496 20.973 13.385 1.431-.397 2.946-.625 4.51-.625 7.612 0 14.022 5.075 16.078 12.026 1.48-.711 3.139-1.132 4.895-1.132z" fill="#fff"/><path d="m171.091 240.076c7.805 0 14.142 6.326 14.142 14.13 0 7.817-6.338 14.142-14.142 14.142-5.231 0-84.396 0-89.171 0-7.805 0-14.142-6.326-14.142-14.142 0-7.805 6.338-14.13 14.142-14.13 2.189 0 4.257.517 6.109 1.407 2.561-8.683 10.583-15.02 20.083-15.02 1.96 0 3.836.289 5.628.782 4.606-9.861 14.587-16.716 26.192-16.716 15.958 0 28.898 12.94 28.898 28.91 0 .289-.024.553-.036.842.745-.121 1.515-.205 2.297-.205z" fill="#fff"/><path d="m256.001 0c-141.159 0-256.001 114.842-256.001 255.999s114.842 255.999 255.999 255.999 255.999-114.842 255.999-255.999-114.839-255.999-255.997-255.999zm0 12.026c134.528 0 243.974 109.446 243.974 243.974 0 42.357-10.858 82.222-29.924 116.973h-49.295c-3.32 0-6.013 2.693-6.013 6.013v16.836h-19.241v-34.875c0-3.32-2.693-6.013-6.013-6.013h-41.93c-3.32 0-6.013 2.693-6.013 6.013v86.585h-28.625v-17.69c0-3.32-2.693-6.013-6.013-6.013h-4.41v-32.017c0-3.32-2.693-6.013-6.013-6.013h-3.608v-26.279c0-2.614-1.679-4.816-4.008-5.645v-156.878c0-2.908-2.066-5.335-4.81-5.891v-20.966c0-7.243-2.759-13.855-7.282-18.838l-14.765-93.475v-33.198c0-3.32-2.693-6.013-6.013-6.013s-6.013 2.693-6.013 6.013v33.198l-14.766 93.475c-4.522 4.983-7.282 11.594-7.282 18.838v20.966c-2.744.557-4.81 2.984-4.81 5.891v156.881c-2.331.827-4.008 3.03-4.008 5.645v26.279h-3.608c-3.32 0-6.013 2.693-6.013 6.013v32.017h-4.413c-3.32 0-6.013 2.693-6.013 6.013v30.918h-51.637v-88.99c0-3.32-2.693-6.013-6.013-6.013h-41.753c-3.32 0-6.013 2.693-6.013 6.013v15.449h-43.257c-24.282-37.916-38.374-82.953-38.374-131.222 0-134.528 109.446-243.974 243.975-243.974zm-120.59 456c-10.411-5.944-20.346-12.627-29.729-19.988v-70.255h29.729zm12.025 4.759h51.637v20.467c-18.073-4.336-35.369-10.69-51.637-18.808zm108.565-375.948 7.3 46.211c-2.329-.628-4.774-.969-7.3-.969-2.524 0-4.97.34-7.3.969zm3.607 106.172v150.499h-7.215v-150.499zm2.004 162.525v20.266h-11.224v-20.266zm.401 58.296v-26.004h9.019v26.004zm-12.025-26.004v26.004h-9.019v-26.004zm33.07 26.004v-26.004h7.416v26.004zm-9.421-38.03v-20.266h7.215v20.266zm-2.003-32.291v-150.5h5.211v150.499h-5.211zm-31.668-183.369c0-8.841 7.193-16.034 16.034-16.034s16.034 7.193 16.034 16.034v20.844h-10.021v-18.439c0-3.32-2.693-6.013-6.013-6.013s-6.013 2.693-6.013 6.013v18.439h-10.021zm-4.811 32.869h5.211v150.499h-5.211zm-4.008 162.525h7.215v20.266h-7.215zm-9.62 32.292h7.416v26.004h-7.416zm-10.427 38.03 8.526.001v61.404c-2.86-.429-5.7-.916-8.526-1.444zm20.552.001h8.214v63.57c-2.749-.18-5.49-.394-8.214-.665zm48.704 0v62.905c-2.727.272-5.472.486-8.226.666v-63.57h8.226zm12.026 0 8.514-.001v59.963c-2.822.527-5.659 1.013-8.514 1.442zm20.54 23.7h28.625v24.923c-9.287 3.489-18.842 6.425-28.625 8.773zm76.567-51.71h25.254v33.264c-18.254 15.677-38.845 28.697-61.171 38.477v-112.629h29.904v34.875c.001 3.321 2.692 6.013 6.013 6.013zm-330.854-8.601h35.022v38.706c-12.998-11.611-24.747-24.588-35.022-38.706zm193.256 100.675v-64.064h8.214v64.064c-1.367.023-2.732.052-4.104.052-1.375.001-2.741-.029-4.11-.052zm174.878-69.859v-45.064h36.219c-10.277 16.43-22.452 31.554-36.219 45.064z" fill="#333"/><path d="m364.315 230.203h71.398c9.557 0 17.333-7.775 17.333-17.333s-7.775-17.333-17.333-17.333c-.507 0-1.011.022-1.512.066-4.299-7.034-12.312-11.459-20.827-10.923-5.373-7.894-14.406-12.797-24.106-12.797-14.342 0-26.298 10.407-28.714 24.066-7.754 1.723-13.57 8.656-13.57 16.921-.002 9.558 7.773 17.333 17.331 17.333zm0-22.638c.239 0 .524.028.869.084 1.771.289 3.579-.227 4.929-1.408s2.103-2.904 2.052-4.698c-.005-.171-.016-.34-.031-.58.046-9.41 7.715-17.051 17.134-17.051 6.615 0 12.706 3.892 15.516 9.914 1.243 2.665 4.232 4.038 7.064 3.251 5.864-1.634 11.599 1.856 13.203 7.302.499 1.692 1.715 3.081 3.328 3.797 1.614.717 3.459.689 5.047-.077.731-.351 1.502-.53 2.287-.53 2.926 0 5.307 2.38 5.307 5.307s-2.38 5.307-5.307 5.307h-71.398c-2.926 0-5.307-2.38-5.307-5.307 0-2.929 2.38-5.311 5.307-5.311z" fill="#333"/><path d="m81.919 274.361h89.172c11.111 0 20.149-9.04 20.149-20.15 0-9.956-7.259-18.249-16.761-19.865-2.474-16.849-17.025-29.827-34.551-29.827-11.908 0-22.975 6.169-29.345 16.046-10.71-1.022-20.883 4.64-25.975 13.677-.886-.12-1.782-.179-2.688-.179-11.111 0-20.149 9.04-20.149 20.149-.001 11.111 9.037 20.149 20.148 20.149zm0-28.273c1.209 0 2.388.273 3.507.811 1.589.765 3.435.794 5.047.077 1.613-.717 2.828-2.104 3.328-3.797 2.23-7.565 10.236-12.396 18.327-10.139 2.834.791 5.82-.584 7.065-3.249 3.754-8.046 11.893-13.246 20.735-13.246 12.625 0 22.896 10.271 22.897 22.816l-.008.13c-.014.207-.028.414-.032.624-.049 1.793.705 3.513 2.055 4.692 1.35 1.18 3.158 1.699 4.927 1.405.51-.083.944-.124 1.325-.124 4.48 0 8.123 3.644 8.123 8.123s-3.644 8.125-8.123 8.125h-89.173c-4.48 0-8.123-3.645-8.123-8.125 0-4.479 3.643-8.123 8.123-8.123z" fill="#333"/></svg>