<svg enable-background="new 0 0 511.999 511.999" viewBox="0 0 511.999 511.999" xmlns="http://www.w3.org/2000/svg"><path d="m505.982 255.998c0 58.216-19.891 111.767-53.262 154.254-45.758 58.289-116.866 95.737-196.716 95.737-79.863 0-150.971-37.448-196.728-95.737-33.371-42.487-53.262-96.037-53.262-154.254 0-138.067 111.923-249.99 249.99-249.99 138.055.001 249.978 111.923 249.978 249.99z" fill="#d7f3ff"/><path d="m449.81 172.612c5.628 0 10.186 4.57 10.186 10.186 0 5.628-4.558 10.186-10.186 10.186-3.764 0-60.802 0-64.241 0-5.616 0-10.186-4.558-10.186-10.186 0-5.616 4.57-10.186 10.186-10.186 1.587 0 3.079.373 4.413 1.022 1.84-6.253 7.612-10.823 14.467-10.823 1.407 0 2.754.204 4.053.565 3.319-7.107 10.498-12.038 18.856-12.038 11.509 0 20.829 9.32 20.829 20.816 0 .204-.024.409-.024.613.541-.095 1.082-.155 1.647-.155z" fill="#fff"/><path d="m442.451 376.58 8.971 33.672h-387.228l8.972-33.672h29.511 83.698 53.346 36.174 53.334 83.711z" fill="#f9d2af"/><g fill="#f7b239"><path d="m431.928 330.726c4.858 4.87 7.865 11.581 7.865 19.001 0 14.828-12.026 26.853-26.853 26.853h-83.711c58.397-8.021 78.576-53.719 78.576-53.719h5.135c7.407 0 14.13 3.006 18.988 7.865z"/><path d="m361.902 322.861h45.902s-20.179 45.698-78.576 53.719h-53.334c44.098-8.021 59.323-53.719 59.323-53.719z"/><path d="m310.276 294.841-19.397 8.779h-24.665-41.477l-18.616-8.43s-15.333 8.707-11.052 27.671h-14.683-26.685l9.296-123.744c.974-12.88 9.753-23.847 22.103-27.611l45.253-13.793v64.121 9.236c0 8.081 3.271 15.393 8.574 20.684 4.894 4.906 11.521 8.069 18.88 8.514-.589.036-1.203.06-1.804.06h3.608c-.601 0-1.215-.024-1.804-.06 15.321-.926 27.455-13.637 27.455-29.198v-9.236-64.121l45.241 13.793c12.362 3.764 21.141 14.731 22.103 27.611l9.296 123.744h-26.685-13.733c4.281-18.965-11.052-27.671-11.052-27.671z"/><path d="m321.484 322.861h13.733s-15.225 45.698-59.323 53.719h-36.173c-44.098-8.021-59.335-53.719-59.335-53.719h14.683 95.412z"/><path d="m310.432 295.19s15.333 8.707 11.052 27.671h-31.002l-6.482-9.717c-3.968-5.953-10.643-9.524-17.786-9.524h24.665l19.397-8.779z"/><path d="m284 313.144 6.482 9.717h-95.412c-4.281-18.965 11.052-27.671 11.052-27.671l18.616 8.43h41.477c7.142 0 13.817 3.572 17.785 9.524z"/><path d="m289.472 113.037v4.991c0 8.743-3.548 16.656-9.272 22.392-5.736 5.724-13.649 9.272-22.392 9.272-17.497 0-31.664-14.178-31.664-31.664v-4.991c2.477-8.021 9.945-13.854 18.772-13.854 4.943 0 9.44 1.84 12.892 4.846 3.451-3.006 7.949-4.846 12.892-4.846 8.826 0 16.294 5.833 18.772 13.854z"/><path d="m289.472 110.812v2.225c-2.477-8.021-9.945-13.854-18.772-13.854-4.943 0-9.44 1.84-12.892 4.846-3.451-3.006-7.949-4.846-12.892-4.846-8.827 0-16.295 5.832-18.772 13.854v-2.225c0-7.793 2.814-14.912 7.48-20.432 5.796-6.867 14.479-11.232 24.184-11.232 9.693 0 18.375 4.365 24.184 11.232 4.666 5.52 7.48 12.639 7.48 20.432z"/><path d="m281.992 79.93v10.45c-5.808-6.867-14.491-11.232-24.184-11.232-9.705 0-18.387 4.365-24.184 11.232v-10.45c0-13.361 10.835-24.184 24.184-24.184s24.184 10.823 24.184 24.184z"/></g><path d="m452.721 410.252c-45.758 58.289-116.866 95.737-196.716 95.737-79.863 0-150.971-37.448-196.728-95.737z" fill="#ccc"/><path d="m239.721 376.58h-53.346c-58.397-8.021-78.564-53.719-78.564-53.719h45.89 26.685c.001 0 15.237 45.698 59.335 53.719z" fill="#f7b239"/><path d="m186.375 376.58h-83.699c-7.42 0-14.13-3.006-18.989-7.865-4.858-4.858-7.865-11.569-7.865-18.989 0-14.84 12.014-26.865 26.853-26.865h5.135c.002 0 20.169 45.698 78.565 53.719z" fill="#f7b239"/><path d="m230.352 129.336h54.909v153.436h-54.909z" fill="#f7b239"/><path d="m169.01 119.639c6.65 0 12.05 5.388 12.05 12.038s-5.4 12.05-12.05 12.05c-4.065 0-71.493 0-75.954 0-6.65 0-12.038-5.4-12.038-12.05s5.388-12.038 12.038-12.038c.673 0 1.323.06 1.96.168-.012-.241-.036-.469-.036-.71 0-13.601 11.028-24.629 24.617-24.629 9.885 0 18.387 5.832 22.308 14.238 1.527-.421 3.139-.673 4.798-.673 8.093 0 14.924 5.412 17.101 12.795 1.587-.756 3.342-1.189 5.206-1.189z" fill="#fff"/><path d="m255.999 0c-141.158 0-255.999 114.842-255.999 255.999s114.841 255.999 255.999 255.999 255.999-114.842 255.999-255.999-114.84-255.999-255.999-255.999zm0 12.026c134.528 0 243.974 109.446 243.974 243.974 0 52.885-16.921 101.888-45.623 141.895l-6.089-22.862c-.701-2.632-3.086-4.465-5.811-4.465h-4.119c4.668-5.676 7.474-12.938 7.474-20.844 0-18.124-14.746-32.87-32.87-32.87h-45.452l-8.881-118.184c-1.163-15.47-11.503-28.389-26.342-32.913l-45.247-13.795c-1.822-.556-3.8-.215-5.332.92-1.531 1.134-2.434 2.927-2.434 4.832v54.805l-15.429-6.975v-12.558c0-3.32-2.693-6.013-6.013-6.013s-6.013 2.693-6.013 6.013v12.558l-15.433 6.976v-54.806c0-1.905-.903-3.698-2.434-4.832s-3.51-1.474-5.332-.92l-45.247 13.795c-14.84 4.524-25.179 17.443-26.342 32.914l-8.881 118.182h-45.45c-18.125 0-32.87 14.746-32.87 32.87 0 7.906 2.807 15.168 7.475 20.844h-4.118c-2.725 0-5.11 1.833-5.811 4.465l-7.054 26.488c-30.31-40.654-48.271-91.027-48.271-145.521.002-134.527 109.448-243.973 243.975-243.973zm-174.169 337.697c0-11.494 9.351-20.844 20.844-20.844h1.447c4.458 8.146 17.458 28.194 43.266 41.689h-44.713c-11.493-.001-20.844-9.351-20.844-20.845zm171.716-83.9c.749.336 7.77.336 8.519 0 16.57-2.884 29.21-17.371 29.21-34.753v-65.238l37.48 11.427c10.059 3.067 17.068 11.825 17.857 22.311l8.814 117.282h-27.206c.105-8.662-3.257-15.508-7.2-20.279l14.825-6.713c3.026-1.37 4.367-4.933 2.997-7.957-1.37-3.026-4.934-4.369-7.957-2.997l-5.136 2.326v-41.745c0-3.32-2.693-6.013-6.013-6.013s-6.013 2.693-6.013 6.013v47.19l-24.146 10.934h-23.368-40.174l-24.146-10.934v-47.19c0-3.32-2.693-6.013-6.013-6.013s-6.013 2.693-6.013 6.013v41.745l-5.136-2.326c-3.026-1.37-6.588-.028-7.957 2.997-1.37 3.024-.028 6.588 2.997 7.957l15.512 7.024c-3.834 4.755-7.049 11.492-6.946 19.967h-28.146l8.813-117.281c.788-10.486 7.797-19.245 17.857-22.311l37.48-11.427v65.238c-.001 17.382 12.638 31.869 29.209 34.753zm4.262-49.801 21.442 9.693v5.355c0 12.212-9.465 22.255-21.444 23.181-11.979-.926-21.444-10.969-21.444-23.181v-5.354zm155.129 154.545h-44.714c25.808-13.495 38.808-33.543 43.266-41.689h1.448c11.494 0 20.844 9.35 20.844 20.844s-9.35 20.845-20.844 20.845zm-84.171 0h-22.682c19.633-13.351 29.643-33.146 33.25-41.689h58.1c-8.562 12.813-29.232 36.152-68.668 41.689zm-88.428 0c-28.888-5.473-44.412-29.119-50.754-41.689h100.89.01.008 35.565c-6.299 12.558-21.764 36.193-50.782 41.689zm-33.516-68.454 15.435 6.989c.779.352 1.625.535 2.481.535h41.472c5.149 0 9.928 2.558 12.786 6.841l.249.374h-78.898c-.182-7.606 3.777-12.382 6.475-14.739zm102.582-.279c2.69 2.248 6.989 7.096 6.803 15.019h-22.511l-4.696-7.045c-.038-.059-.083-.113-.123-.171h1.997c.855 0 1.702-.183 2.481-.535zm-133.127 27.045c3.606 8.543 13.617 28.339 33.25 41.689h-22.682c-39.437-5.537-60.108-28.876-68.669-41.689zm261.553 53.714 5.765 21.646h-371.579l5.765-21.646zm-181.831 117.381c-73.239 0-139.037-32.444-183.795-83.708h367.591c-44.758 51.263-110.557 83.708-183.796 83.708z" fill="#333"/><path d="m257.806 155.709c20.777 0 37.68-16.903 37.68-37.68v-7.215c0-8.434-2.785-16.229-7.484-22.515v-8.367c0-16.651-13.546-30.197-30.197-30.197s-30.197 13.546-30.197 30.197v8.367c-4.698 6.286-7.484 14.081-7.484 22.515v7.215c.002 20.776 16.905 37.68 37.682 37.68zm0-70.551c7.701 0 14.603 3.427 19.31 8.818-2.059-.526-4.21-.805-6.418-.805-4.551 0-8.994 1.219-12.892 3.491-3.896-2.273-8.341-3.491-12.892-3.491-2.22 0-4.375.301-6.443.832 4.707-5.407 11.62-8.845 19.335-8.845zm0 58.525c-14.146 0-25.654-11.509-25.654-25.654v-3.962c1.985-5.333 7.013-8.869 12.763-8.869 3.273 0 6.449 1.197 8.942 3.367 2.264 1.973 5.635 1.973 7.898 0 2.493-2.171 5.668-3.367 8.942-3.367 5.75 0 10.777 3.534 12.763 8.868v3.964c0 14.144-11.509 25.653-25.654 25.653zm0-81.924c9.273 0 16.933 6.988 18.024 15.971-5.357-2.931-11.499-4.6-18.024-4.6s-12.667 1.669-18.024 4.6c1.09-8.983 8.749-15.971 18.024-15.971z" fill="#333"/><path d="m385.571 199.001h64.244c8.931 0 16.199-7.266 16.199-16.199 0-7.585-5.241-13.969-12.291-15.721-2.381-12.379-13.294-21.76-26.358-21.76-8.812 0-17.027 4.395-21.995 11.498-7.651-.355-14.787 3.582-18.754 9.821-.346-.023-.694-.034-1.043-.034-8.931 0-16.197 7.266-16.197 16.197-.002 8.932 7.265 16.198 16.195 16.198zm0-20.37c.617 0 1.222.141 1.798.419 1.589.764 3.435.792 5.047.077 1.613-.717 2.828-2.105 3.327-3.797 1.354-4.594 6.174-7.541 11.142-6.161 2.832.788 5.819-.584 7.064-3.249 2.43-5.208 7.695-8.573 13.416-8.573 8.151 0 14.784 6.619 14.812 14.764-.011.16-.02.319-.025.479-.052 1.794.7 3.518 2.05 4.7 1.35 1.181 3.154 1.699 4.929 1.409.279-.046.503-.067.685-.067 2.301 0 4.173 1.871 4.173 4.172s-1.872 4.173-4.173 4.173h-64.244c-2.301 0-4.172-1.872-4.172-4.173s1.871-4.173 4.171-4.173z" fill="#333"/><path d="m93.056 149.734h75.959c9.955 0 18.055-8.099 18.055-18.055 0-9.955-8.099-18.055-18.055-18.055-.608 0-1.213.03-1.813.091-4.507-7.545-13.076-12.276-22.148-11.629-5.63-8.402-15.185-13.629-25.451-13.629-15.157 0-27.779 11.065-30.215 25.54-8.203 1.699-14.388 8.982-14.388 17.68.001 9.958 8.1 18.057 18.056 18.057zm0-24.085c.278 0 .6.03.985.094 1.776.292 3.582-.226 4.932-1.409 1.352-1.182 2.103-2.907 2.05-4.702-.006-.183-.017-.363-.034-.536 0-10.263 8.349-18.612 18.612-18.612 7.188 0 13.803 4.227 16.855 10.769 1.243 2.665 4.232 4.041 7.063 3.251 6.434-1.791 12.754 2.04 14.52 8.031.499 1.692 1.715 3.081 3.328 3.797 1.611.716 3.459.688 5.047-.077.831-.4 1.705-.602 2.601-.602 3.325 0 6.03 2.705 6.03 6.03s-2.705 6.03-6.03 6.03h-75.959c-3.325 0-6.03-2.705-6.03-6.03s2.705-6.034 6.03-6.034z" fill="#333"/></svg>