<svg enable-background="new 0 0 512 512" viewBox="0 0 512 512" xmlns="http://www.w3.org/2000/svg"><circle cx="256.003" cy="256.004" fill="#d7f3ff" r="249.99"/><path d="m294.787 457.525 33.876 37.737c-22.993 6.975-47.393 10.727-72.659 10.727-25.278 0-49.678-3.752-72.671-10.727l33.888-37.737z" fill="#999"/><path d="m434.802 430.696c-29.006 29.703-65.372 52.204-106.139 64.566l-33.876-37.737h-77.566l-33.888 37.737c-40.767-12.362-77.133-34.862-106.139-64.566z" fill="#ccc"/><path d="m432.926 412.682 7.793 11.737c-1.924 2.129-3.908 4.221-5.917 6.277h-357.608c-2.008-2.056-3.981-4.149-5.917-6.265l7.516-11.304.89.589h351.691z" fill="#e6e6e6"/><path d="m116.145 396.736h19.843 23.486 20.6 25.086 20.203 19.662 22.644 19.662 20.203 25.086 20.6 23.486 19.842 20.168 5.616l4.75 7.143 5.844 8.803-1.551 1.034h-351.692l-.889-.589 10.883-16.391h6.301z" fill="#e6e6e6"/><path d="m66.996 204.866c6.578 0 11.917 5.339 11.917 11.917s-5.339 11.917-11.917 11.917-11.917-5.339-11.917-11.917 5.339-11.917 11.917-11.917z" fill="#dda36f"/><path d="m445 204.866c6.59 0 11.917 5.339 11.917 11.917s-5.327 11.917-11.917 11.917c-6.578 0-11.905-5.339-11.905-11.917s5.327-11.917 11.905-11.917z" fill="#dda36f"/><path d="m266.996 88.349v2.176h-21.298v-2.176l10.643-39.469z" fill="#dda36f"/><path d="m271.253 90.525v26.144c-4.882-1.118-9.969-1.708-15.188-1.708-.168 0-.349 0-.517.012-.024-.012-.036-.012-.06 0-.048-.012-.084-.012-.132-.012-.072 0-.132 0-.204.012-4.906.06-9.681.637-14.287 1.696v-26.144h4.834 21.297z" fill="#f9dcc0"/><path d="m245.024 366.351h22.644v30.389h-22.644z" fill="#666"/><path d="m95.978 336.523v60.213h-6.301l-10.883 16.391-7.516 11.304c-4.822-5.291-9.428-10.787-13.793-16.475v-71.433c0-10.631 8.61-19.241 19.241-19.241 10.642 0 19.252 8.61 19.252 19.241z" fill="#4d4d4d"/><path d="m455.21 336.523v70.507c-4.57 6.013-9.404 11.821-14.491 17.389l-7.793-11.737-5.844-8.803-4.75-7.143h-5.616v-2.934-57.278c0-10.631 8.61-19.241 19.241-19.241 10.642-.001 19.253 8.609 19.253 19.24z" fill="#4d4d4d"/><path d="m231.724 228.7h-24.292-19.301v-45.817h25.627 26.276 15.97v45.817z" fill="#f4c290"/><path d="m280.284 228.7h-24.28v-45.817h14.684 27.683 25.494v45.817h-19.301z" fill="#f4c290"/><path d="m323.985 182.883h-.12-25.494c0-37.508-18.94-67.921-42.306-67.921 5.219 0 10.306.589 15.188 1.708 30.196 6.902 52.732 33.924 52.732 66.213z" fill="#86aebf"/><path d="m298.371 182.883h-27.683c0-37.22-6.758-67.464-15.14-67.909.168-.012.349-.012.517-.012 23.365-.001 42.306 30.412 42.306 67.921z" fill="#86aebf"/><path d="m270.688 182.883h-14.683-15.97c0-36.907 6.638-66.935 14.912-67.897h.024c.168-.012.349-.012.517-.012.024-.012.036-.012.06 0 8.381.444 15.14 30.689 15.14 67.909z" fill="#86aebf"/><path d="m254.946 114.985c-8.274.962-14.912 30.99-14.912 67.897h-26.276c0-36.906 18.339-66.946 41.188-67.897z" fill="#86aebf"/><path d="m255.15 114.973c-.06 0-.12 0-.18.012-.012 0-.012 0-.024 0-22.849.95-41.188 30.99-41.188 67.897h-25.627c0-32.289 22.536-59.311 52.733-66.213 4.606-1.058 9.38-1.635 14.286-1.696z" fill="#86aebf"/><path d="m474.379 286.496v91.263c-5.712 10.222-12.122 19.999-19.169 29.271v-70.507c0-10.631-8.61-19.241-19.253-19.241-10.631 0-19.241 8.61-19.241 19.241v57.278 2.934h-20.167v-110.24z" fill="#dda36f"/><path d="m135.988 286.496h-19.843-78.527v-19.061h149.876 137.706 149.179v19.061h-77.831-19.842-23.486-20.6-25.086-20.203-61.968-20.203-25.086-20.6z" fill="#f4c290"/><path d="m474.379 228.7v38.735h-149.179l-68.859-23.27-68.847 23.27h-149.876v-38.735h29.378 29.379 13.397 50.063 13.396 14.9 19.301 24.292 24.28 24.28 24.28 19.301 14.9 13.409 50.051 13.408 29.367z" fill="#f9dcc0"/><path d="m402.225 228.7h-50.051c0-13.818 11.208-25.025 25.025-25.025s25.026 11.208 25.026 25.025z" fill="#86aebf"/><path d="m376.705 286.501h19.842v110.24h-19.842z" fill="#f9d6b7"/><path d="m353.219 286.501h23.486v110.24h-23.486z" fill="#dda36f"/><path d="m332.619 286.501h20.6v110.24h-20.6z" fill="#f9d6b7"/><path d="m307.533 286.501h25.086v110.24h-25.086z" fill="#dda36f"/><path d="m325.2 267.435h-137.706l68.847-23.27z" fill="#f4c290"/><path d="m287.33 286.501h20.203v110.24h-20.203z" fill="#f9d6b7"/><path d="m287.331 286.496v110.24h-19.662v-30.389h-22.644v30.389h-19.662v-110.24z" fill="#dda36f"/><path d="m205.158 286.501h20.203v110.24h-20.203z" fill="#f9d6b7"/><path d="m180.073 286.501h25.086v110.24h-25.086z" fill="#dda36f"/><path d="m159.473 286.501h20.6v110.24h-20.6z" fill="#f9d6b7"/><path d="m159.835 228.7h-50.063c0-13.818 11.208-25.025 25.025-25.025 13.83 0 25.038 11.208 25.038 25.025z" fill="#86aebf"/><path d="m135.987 286.501h23.486v110.24h-23.486z" fill="#dda36f"/><path d="m116.144 286.501h19.842v110.24h-19.842z" fill="#f9d6b7"/><path d="m116.145 286.496v110.24h-20.167v-60.213c0-10.631-8.61-19.241-19.253-19.241-10.631 0-19.241 8.61-19.241 19.241v71.433c-7.312-9.548-13.962-19.638-19.866-30.197v-91.263z" fill="#dda36f"/><g fill="#333"><path d="m256.001.001c-141.159 0-256.001 114.84-256.001 255.999s114.842 255.999 256.001 255.999 255.999-114.84 255.999-255.999-114.841-255.999-255.999-255.999zm0 12.025c134.528 0 243.974 109.446 243.974 243.974 0 33.968-6.986 66.331-19.583 95.743l.004-151.046c0-3.32-2.691-6.013-6.013-6.013-3.321 0-6.013 2.693-6.013 6.013v21.993h-6.452c.648-1.852 1.02-3.834 1.02-5.903 0-9.886-8.043-17.93-17.93-17.93s-17.93 8.043-17.93 17.93c0 2.071.37 4.051 1.02 5.903h-6.452v-21.993c0-3.32-2.691-6.013-6.013-6.013-3.321 0-6.013 2.693-6.013 6.013v21.993h-1.971c-2.424-12.3-12.136-22.012-24.436-24.436v-17.815c0-3.32-2.691-6.013-6.013-6.013s-6.013 2.693-6.013 6.013v17.815c-12.3 2.424-22.011 12.136-24.435 24.436h-1.971v-11.795c0-3.32-2.691-6.013-6.013-6.013-3.321 0-6.013 2.693-6.013 6.013v11.795h-2.751s0-39.393 0-39.8c0-33.401-22.268-61.686-52.734-70.825v-21.535c0-2.99-2.187-5.451-5.047-5.915l-10.069-37.301c-.708-2.624-3.087-4.446-5.805-4.446s-5.097 1.822-5.805 4.446l-10.054 37.242c-3.142.198-5.636 2.783-5.636 5.974v21.532c-30.466 9.14-52.734 37.425-52.734 70.827v39.8h-2.871v-11.795c0-3.32-2.691-6.013-6.013-6.013s-6.013 2.693-6.013 6.013v11.795h-1.971c-2.424-12.3-12.136-22.012-24.436-24.436v-17.815c0-3.32-2.691-6.013-6.013-6.013-3.321 0-6.013 2.693-6.013 6.013v17.815c-12.3 2.424-22.012 12.136-24.436 24.436h-1.971v-21.993c0-3.32-2.691-6.013-6.013-6.013-3.321 0-6.013 2.693-6.013 6.013v21.993h-6.452c.648-1.852 1.02-3.834 1.02-5.903 0-9.886-8.043-17.93-17.929-17.93-9.888 0-17.93 8.043-17.93 17.93 0 2.071.37 4.051 1.02 5.903h-6.452v-21.993c0-3.32-2.691-6.013-6.013-6.013s-6.013 2.693-6.013 6.013l-.001 151.038c-12.597-29.409-19.581-61.77-19.581-95.734 0-134.528 109.447-243.974 243.975-243.974zm176.098 412.657h-352.198c-.31-.323-.618-.648-.926-.974l2.646-3.983h348.763l2.643 3.979c-.309.329-.617.655-.928.978zm-12.355 12.026c-25.448 23.08-55.778 40.86-89.229 51.613l-31.252-34.813c-1.14-1.27-2.767-1.996-4.475-1.996h-77.566c-1.706 0-3.332.725-4.474 1.995l-31.263 34.813c-33.451-10.755-63.781-28.533-89.227-51.613h327.486zm-358.653-219.925c0-3.255 2.649-5.905 5.905-5.905 3.255 0 5.903 2.649 5.903 5.905 0 3.254-2.647 5.902-5.901 5.903h-.006c-3.253-.001-5.901-2.647-5.901-5.903zm407.275 17.931v26.705h-142.179l-67.915-22.951c-1.247-.422-2.602-.422-3.849 0l-67.916 22.951h-142.877v-26.705zm-333.563-25.027c8.384 0 15.517 5.454 18.04 13h-36.079c2.522-7.547 9.655-13 18.039-13zm112.075-113.145h18.364v12.995c-3.011-.375-6.072-.59-9.183-.59-.17 0-6.542.262-9.182.59v-12.995zm6.076-12.026 3.392-12.566 3.391 12.566zm57.622 138.172v-20.137c0-3.32-2.691-6.013-6.013-6.013s-6.013 2.693-6.013 6.013v20.137h-12.255v-20.137c0-3.32-2.691-6.013-6.013-6.013-3.321 0-6.013 2.693-6.013 6.013v20.137h-12.254v-33.787h55.842v33.787zm-33.941-45.813c-.315-16.32-1.91-31.531-4.575-43.343-.629-2.785-1.304-5.3-2.019-7.595 11.925 8.784 20.78 28.292 22.13 50.938zm-36.417-49.45c-.548 1.887-1.07 3.917-1.565 6.107-2.665 11.81-4.26 27.023-4.575 43.343h-14.13c1.278-21.452 9.294-40.077 20.27-49.45zm15.139-5.561c3.443 5.032 8.652 23.772 9.255 55.01h-18.51c.603-31.237 5.812-49.979 9.255-55.01zm48.856 55.011c-.877-17.404-5.522-32.934-12.734-44.738 14.458 10.121 24.417 26.25 26.206 44.738zm-96.306 0h-13.472c1.788-18.488 11.747-34.617 26.205-44.738-7.212 11.804-11.857 27.334-12.733 44.738zm-13.763 12.025h55.844v33.787h-12.255v-20.137c0-3.32-2.691-6.013-6.013-6.013s-6.013 2.693-6.013 6.013v20.137h-12.255v-20.137c0-3.32-2.691-6.013-6.013-6.013s-6.013 2.693-6.013 6.013v20.137h-7.28v-33.787zm183.053 20.787c8.384 0 15.517 5.454 18.04 13h-36.078c2.522-7.547 9.656-13 18.038-13zm61.904 7.096c0-3.255 2.649-5.905 5.905-5.905 3.255 0 5.905 2.649 5.905 5.905 0 3.254-2.648 5.902-5.902 5.903h-.006c-3.254-.001-5.902-2.647-5.902-5.903zm29.265 63.703h-424.736v-7.041h424.734v7.041zm-49.257 122.261 3.289 4.953h-332.787l3.29-4.953zm-289.139-110.236v98.211h-7.814v-98.211zm229.258 98.211v-98.211h11.469v98.211zm-12.026 0h-8.573v-98.211h8.573zm-20.599 0h-13.053v-98.211h13.053zm-25.079 0h-8.181v-98.211h8.181zm-20.206 0h-7.639v-24.379c0-3.32-2.691-6.013-6.013-6.013h-22.642c-3.321 0-6.013 2.693-6.013 6.013v24.379h-7.638v-98.211h49.943v98.211zm-19.664 0h-10.616v-18.366h10.616zm-42.305 0h-8.181v-98.211h8.181zm-20.206 0h-13.053v-98.211h13.053zm-25.079 0h-8.572v-98.211h8.572zm-20.598 0h-11.47v-98.211h11.47zm229.257 0v-98.211h7.814v98.211zm-158.655-129.304 32.279-10.909 32.278 10.909zm-180.438 31.093h66.5v98.211h-8.14v-54.2c0-13.925-11.334-25.254-25.266-25.254-13.925 0-25.254 11.329-25.254 25.254v52.332c-2.742-4.205-5.356-8.5-7.841-12.878v-83.466h.001zm19.867 44.011c0-7.294 5.935-13.228 13.228-13.228 7.3 0 13.24 5.935 13.24 13.228v54.2h-.287c-2.014 0-3.894 1.008-5.009 2.685l-14.002 21.074c-2.456-2.867-4.848-5.79-7.171-8.77v-69.189zm363.841 56.884c-1.04-1.565-2.749-2.535-4.609-2.659v-54.225c0-7.294 5.935-13.228 13.228-13.228 7.301 0 13.241 5.935 13.241 13.228v68.284c-2.541 3.291-5.16 6.517-7.862 9.672zm8.619-82.138c-13.925 0-25.254 11.329-25.254 25.254v54.2h-8.14v-98.211h65.803v83.472c-2.274 4.009-4.652 7.954-7.142 11.819v-51.279c-.001-13.926-11.337-25.255-25.267-25.255zm-241.667 180.792 25.614-28.523h72.201l25.605 28.523c-19.717 5.158-40.397 7.913-61.709 7.913-21.314.001-41.993-2.754-61.711-7.913z"/><path d="m114.831 254.378h10.725c3.322 0 6.013-2.693 6.013-6.013s-2.691-6.013-6.013-6.013h-10.725c-3.322 0-6.013 2.693-6.013 6.013s2.693 6.013 6.013 6.013z"/><path d="m67.759 254.378h10.725c3.322 0 6.013-2.693 6.013-6.013s-2.691-6.013-6.013-6.013h-10.725c-3.322 0-6.013 2.693-6.013 6.013s2.691 6.013 6.013 6.013z"/><path d="m161.903 254.378h10.726c3.321 0 6.013-2.693 6.013-6.013s-2.691-6.013-6.013-6.013h-10.726c-3.321 0-6.013 2.693-6.013 6.013s2.692 6.013 6.013 6.013z"/><path d="m387.137 254.378h10.726c3.322 0 6.013-2.693 6.013-6.013s-2.691-6.013-6.013-6.013h-10.726c-3.322 0-6.013 2.693-6.013 6.013s2.692 6.013 6.013 6.013z"/><path d="m340.064 254.378h10.726c3.322 0 6.013-2.693 6.013-6.013s-2.691-6.013-6.013-6.013h-10.726c-3.322 0-6.013 2.693-6.013 6.013s2.692 6.013 6.013 6.013z"/><path d="m434.209 254.378h10.726c3.321 0 6.013-2.693 6.013-6.013s-2.691-6.013-6.013-6.013h-10.726c-3.322 0-6.013 2.693-6.013 6.013.001 3.32 2.693 6.013 6.013 6.013z"/></g></svg>